G75*
%MOIN*%
%OFA0B0*%
%FSLAX25Y25*%
%IPPOS*%
%LPD*%
%AMOC8*
5,1,8,0,0,1.08239X$1,22.5*
%
%ADD10C,0.00000*%
%ADD11C,0.00600*%
%ADD12C,0.00800*%
%ADD13C,0.01000*%
%ADD14R,0.00100X0.00100*%
%ADD15R,0.03100X0.00100*%
%ADD16R,0.03800X0.00100*%
%ADD17R,0.04400X0.00100*%
%ADD18R,0.05200X0.00100*%
%ADD19R,0.02100X0.00100*%
%ADD20R,0.01600X0.00100*%
%ADD21R,0.01400X0.00100*%
%ADD22R,0.01300X0.00100*%
%ADD23R,0.01200X0.00100*%
%ADD24R,0.01100X0.00100*%
%ADD25R,0.01000X0.00100*%
%ADD26R,0.00900X0.00100*%
%ADD27R,0.00800X0.00100*%
%ADD28R,0.00700X0.00100*%
%ADD29R,0.00400X0.00100*%
%ADD30R,0.00300X0.00100*%
%ADD31R,0.00600X0.00100*%
%ADD32R,0.00500X0.00100*%
%ADD33R,0.00200X0.00100*%
%ADD34R,0.01900X0.00100*%
%ADD35R,0.01500X0.00100*%
%ADD36R,0.01700X0.00100*%
%ADD37R,0.02000X0.00100*%
%ADD38R,0.02400X0.00100*%
%ADD39R,0.02500X0.00100*%
%ADD40R,0.02700X0.00100*%
%ADD41R,0.02800X0.00100*%
%ADD42R,0.03000X0.00100*%
%ADD43R,0.03200X0.00100*%
%ADD44R,0.03300X0.00100*%
%ADD45R,0.03600X0.00100*%
%ADD46R,0.02200X0.00100*%
%ADD47R,0.02300X0.00100*%
%ADD48R,0.01800X0.00100*%
%ADD49R,0.05600X0.00100*%
%ADD50R,0.04300X0.00100*%
%ADD51R,0.15000X0.00100*%
%ADD52R,0.04700X0.00100*%
%ADD53R,0.04800X0.00100*%
%ADD54R,0.02600X0.00100*%
%ADD55R,0.03400X0.00100*%
%ADD56R,0.03500X0.00100*%
%ADD57R,0.03700X0.00100*%
%ADD58R,0.09100X0.00100*%
%ADD59R,0.09200X0.00100*%
%ADD60R,0.08700X0.00100*%
%ADD61R,0.02900X0.00100*%
%ADD62R,0.04000X0.00100*%
%ADD63R,0.04200X0.00100*%
%ADD64R,0.04600X0.00100*%
%ADD65R,0.05000X0.00100*%
%ADD66R,0.05100X0.00100*%
%ADD67R,0.05300X0.00100*%
%ADD68R,0.05400X0.00100*%
%ADD69R,0.05500X0.00100*%
%ADD70R,0.04500X0.00100*%
%ADD71R,0.04100X0.00100*%
%ADD72R,0.03900X0.00100*%
%ADD73R,0.04900X0.00100*%
D10*
X0001500Y0001550D02*
X0001500Y0144550D01*
X0203500Y0144550D01*
X0203500Y0039550D01*
X0101500Y0039550D01*
X0063500Y0001550D01*
X0001500Y0001550D01*
X0006250Y0026550D02*
X0006252Y0026708D01*
X0006258Y0026865D01*
X0006268Y0027023D01*
X0006282Y0027180D01*
X0006300Y0027336D01*
X0006321Y0027493D01*
X0006347Y0027648D01*
X0006377Y0027803D01*
X0006410Y0027957D01*
X0006448Y0028110D01*
X0006489Y0028263D01*
X0006534Y0028414D01*
X0006583Y0028564D01*
X0006636Y0028712D01*
X0006692Y0028860D01*
X0006753Y0029005D01*
X0006816Y0029150D01*
X0006884Y0029292D01*
X0006955Y0029433D01*
X0007029Y0029572D01*
X0007107Y0029709D01*
X0007189Y0029844D01*
X0007273Y0029977D01*
X0007362Y0030108D01*
X0007453Y0030236D01*
X0007548Y0030363D01*
X0007645Y0030486D01*
X0007746Y0030608D01*
X0007850Y0030726D01*
X0007957Y0030842D01*
X0008067Y0030955D01*
X0008179Y0031066D01*
X0008295Y0031173D01*
X0008413Y0031278D01*
X0008533Y0031380D01*
X0008656Y0031478D01*
X0008782Y0031574D01*
X0008910Y0031666D01*
X0009040Y0031755D01*
X0009172Y0031841D01*
X0009307Y0031923D01*
X0009444Y0032002D01*
X0009582Y0032077D01*
X0009722Y0032149D01*
X0009865Y0032217D01*
X0010008Y0032282D01*
X0010154Y0032343D01*
X0010301Y0032400D01*
X0010449Y0032454D01*
X0010599Y0032504D01*
X0010749Y0032550D01*
X0010901Y0032592D01*
X0011054Y0032631D01*
X0011208Y0032665D01*
X0011363Y0032696D01*
X0011518Y0032722D01*
X0011674Y0032745D01*
X0011831Y0032764D01*
X0011988Y0032779D01*
X0012145Y0032790D01*
X0012303Y0032797D01*
X0012461Y0032800D01*
X0012618Y0032799D01*
X0012776Y0032794D01*
X0012933Y0032785D01*
X0013091Y0032772D01*
X0013247Y0032755D01*
X0013404Y0032734D01*
X0013559Y0032710D01*
X0013714Y0032681D01*
X0013869Y0032648D01*
X0014022Y0032612D01*
X0014175Y0032571D01*
X0014326Y0032527D01*
X0014476Y0032479D01*
X0014625Y0032428D01*
X0014773Y0032372D01*
X0014919Y0032313D01*
X0015064Y0032250D01*
X0015207Y0032183D01*
X0015348Y0032113D01*
X0015487Y0032040D01*
X0015625Y0031963D01*
X0015761Y0031882D01*
X0015894Y0031798D01*
X0016025Y0031711D01*
X0016154Y0031620D01*
X0016281Y0031526D01*
X0016406Y0031429D01*
X0016527Y0031329D01*
X0016647Y0031226D01*
X0016763Y0031120D01*
X0016877Y0031011D01*
X0016989Y0030899D01*
X0017097Y0030785D01*
X0017202Y0030667D01*
X0017305Y0030547D01*
X0017404Y0030425D01*
X0017500Y0030300D01*
X0017593Y0030172D01*
X0017683Y0030043D01*
X0017769Y0029911D01*
X0017853Y0029777D01*
X0017932Y0029641D01*
X0018009Y0029503D01*
X0018081Y0029363D01*
X0018150Y0029221D01*
X0018216Y0029078D01*
X0018278Y0028933D01*
X0018336Y0028786D01*
X0018391Y0028638D01*
X0018442Y0028489D01*
X0018489Y0028338D01*
X0018532Y0028187D01*
X0018571Y0028034D01*
X0018607Y0027880D01*
X0018638Y0027726D01*
X0018666Y0027571D01*
X0018690Y0027415D01*
X0018710Y0027258D01*
X0018726Y0027101D01*
X0018738Y0026944D01*
X0018746Y0026787D01*
X0018750Y0026629D01*
X0018750Y0026471D01*
X0018746Y0026313D01*
X0018738Y0026156D01*
X0018726Y0025999D01*
X0018710Y0025842D01*
X0018690Y0025685D01*
X0018666Y0025529D01*
X0018638Y0025374D01*
X0018607Y0025220D01*
X0018571Y0025066D01*
X0018532Y0024913D01*
X0018489Y0024762D01*
X0018442Y0024611D01*
X0018391Y0024462D01*
X0018336Y0024314D01*
X0018278Y0024167D01*
X0018216Y0024022D01*
X0018150Y0023879D01*
X0018081Y0023737D01*
X0018009Y0023597D01*
X0017932Y0023459D01*
X0017853Y0023323D01*
X0017769Y0023189D01*
X0017683Y0023057D01*
X0017593Y0022928D01*
X0017500Y0022800D01*
X0017404Y0022675D01*
X0017305Y0022553D01*
X0017202Y0022433D01*
X0017097Y0022315D01*
X0016989Y0022201D01*
X0016877Y0022089D01*
X0016763Y0021980D01*
X0016647Y0021874D01*
X0016527Y0021771D01*
X0016406Y0021671D01*
X0016281Y0021574D01*
X0016154Y0021480D01*
X0016025Y0021389D01*
X0015894Y0021302D01*
X0015761Y0021218D01*
X0015625Y0021137D01*
X0015487Y0021060D01*
X0015348Y0020987D01*
X0015207Y0020917D01*
X0015064Y0020850D01*
X0014919Y0020787D01*
X0014773Y0020728D01*
X0014625Y0020672D01*
X0014476Y0020621D01*
X0014326Y0020573D01*
X0014175Y0020529D01*
X0014022Y0020488D01*
X0013869Y0020452D01*
X0013714Y0020419D01*
X0013559Y0020390D01*
X0013404Y0020366D01*
X0013247Y0020345D01*
X0013091Y0020328D01*
X0012933Y0020315D01*
X0012776Y0020306D01*
X0012618Y0020301D01*
X0012461Y0020300D01*
X0012303Y0020303D01*
X0012145Y0020310D01*
X0011988Y0020321D01*
X0011831Y0020336D01*
X0011674Y0020355D01*
X0011518Y0020378D01*
X0011363Y0020404D01*
X0011208Y0020435D01*
X0011054Y0020469D01*
X0010901Y0020508D01*
X0010749Y0020550D01*
X0010599Y0020596D01*
X0010449Y0020646D01*
X0010301Y0020700D01*
X0010154Y0020757D01*
X0010008Y0020818D01*
X0009865Y0020883D01*
X0009722Y0020951D01*
X0009582Y0021023D01*
X0009444Y0021098D01*
X0009307Y0021177D01*
X0009172Y0021259D01*
X0009040Y0021345D01*
X0008910Y0021434D01*
X0008782Y0021526D01*
X0008656Y0021622D01*
X0008533Y0021720D01*
X0008413Y0021822D01*
X0008295Y0021927D01*
X0008179Y0022034D01*
X0008067Y0022145D01*
X0007957Y0022258D01*
X0007850Y0022374D01*
X0007746Y0022492D01*
X0007645Y0022614D01*
X0007548Y0022737D01*
X0007453Y0022864D01*
X0007362Y0022992D01*
X0007273Y0023123D01*
X0007189Y0023256D01*
X0007107Y0023391D01*
X0007029Y0023528D01*
X0006955Y0023667D01*
X0006884Y0023808D01*
X0006816Y0023950D01*
X0006753Y0024095D01*
X0006692Y0024240D01*
X0006636Y0024388D01*
X0006583Y0024536D01*
X0006534Y0024686D01*
X0006489Y0024837D01*
X0006448Y0024990D01*
X0006410Y0025143D01*
X0006377Y0025297D01*
X0006347Y0025452D01*
X0006321Y0025607D01*
X0006300Y0025764D01*
X0006282Y0025920D01*
X0006268Y0026077D01*
X0006258Y0026235D01*
X0006252Y0026392D01*
X0006250Y0026550D01*
X0046250Y0026550D02*
X0046252Y0026708D01*
X0046258Y0026865D01*
X0046268Y0027023D01*
X0046282Y0027180D01*
X0046300Y0027336D01*
X0046321Y0027493D01*
X0046347Y0027648D01*
X0046377Y0027803D01*
X0046410Y0027957D01*
X0046448Y0028110D01*
X0046489Y0028263D01*
X0046534Y0028414D01*
X0046583Y0028564D01*
X0046636Y0028712D01*
X0046692Y0028860D01*
X0046753Y0029005D01*
X0046816Y0029150D01*
X0046884Y0029292D01*
X0046955Y0029433D01*
X0047029Y0029572D01*
X0047107Y0029709D01*
X0047189Y0029844D01*
X0047273Y0029977D01*
X0047362Y0030108D01*
X0047453Y0030236D01*
X0047548Y0030363D01*
X0047645Y0030486D01*
X0047746Y0030608D01*
X0047850Y0030726D01*
X0047957Y0030842D01*
X0048067Y0030955D01*
X0048179Y0031066D01*
X0048295Y0031173D01*
X0048413Y0031278D01*
X0048533Y0031380D01*
X0048656Y0031478D01*
X0048782Y0031574D01*
X0048910Y0031666D01*
X0049040Y0031755D01*
X0049172Y0031841D01*
X0049307Y0031923D01*
X0049444Y0032002D01*
X0049582Y0032077D01*
X0049722Y0032149D01*
X0049865Y0032217D01*
X0050008Y0032282D01*
X0050154Y0032343D01*
X0050301Y0032400D01*
X0050449Y0032454D01*
X0050599Y0032504D01*
X0050749Y0032550D01*
X0050901Y0032592D01*
X0051054Y0032631D01*
X0051208Y0032665D01*
X0051363Y0032696D01*
X0051518Y0032722D01*
X0051674Y0032745D01*
X0051831Y0032764D01*
X0051988Y0032779D01*
X0052145Y0032790D01*
X0052303Y0032797D01*
X0052461Y0032800D01*
X0052618Y0032799D01*
X0052776Y0032794D01*
X0052933Y0032785D01*
X0053091Y0032772D01*
X0053247Y0032755D01*
X0053404Y0032734D01*
X0053559Y0032710D01*
X0053714Y0032681D01*
X0053869Y0032648D01*
X0054022Y0032612D01*
X0054175Y0032571D01*
X0054326Y0032527D01*
X0054476Y0032479D01*
X0054625Y0032428D01*
X0054773Y0032372D01*
X0054919Y0032313D01*
X0055064Y0032250D01*
X0055207Y0032183D01*
X0055348Y0032113D01*
X0055487Y0032040D01*
X0055625Y0031963D01*
X0055761Y0031882D01*
X0055894Y0031798D01*
X0056025Y0031711D01*
X0056154Y0031620D01*
X0056281Y0031526D01*
X0056406Y0031429D01*
X0056527Y0031329D01*
X0056647Y0031226D01*
X0056763Y0031120D01*
X0056877Y0031011D01*
X0056989Y0030899D01*
X0057097Y0030785D01*
X0057202Y0030667D01*
X0057305Y0030547D01*
X0057404Y0030425D01*
X0057500Y0030300D01*
X0057593Y0030172D01*
X0057683Y0030043D01*
X0057769Y0029911D01*
X0057853Y0029777D01*
X0057932Y0029641D01*
X0058009Y0029503D01*
X0058081Y0029363D01*
X0058150Y0029221D01*
X0058216Y0029078D01*
X0058278Y0028933D01*
X0058336Y0028786D01*
X0058391Y0028638D01*
X0058442Y0028489D01*
X0058489Y0028338D01*
X0058532Y0028187D01*
X0058571Y0028034D01*
X0058607Y0027880D01*
X0058638Y0027726D01*
X0058666Y0027571D01*
X0058690Y0027415D01*
X0058710Y0027258D01*
X0058726Y0027101D01*
X0058738Y0026944D01*
X0058746Y0026787D01*
X0058750Y0026629D01*
X0058750Y0026471D01*
X0058746Y0026313D01*
X0058738Y0026156D01*
X0058726Y0025999D01*
X0058710Y0025842D01*
X0058690Y0025685D01*
X0058666Y0025529D01*
X0058638Y0025374D01*
X0058607Y0025220D01*
X0058571Y0025066D01*
X0058532Y0024913D01*
X0058489Y0024762D01*
X0058442Y0024611D01*
X0058391Y0024462D01*
X0058336Y0024314D01*
X0058278Y0024167D01*
X0058216Y0024022D01*
X0058150Y0023879D01*
X0058081Y0023737D01*
X0058009Y0023597D01*
X0057932Y0023459D01*
X0057853Y0023323D01*
X0057769Y0023189D01*
X0057683Y0023057D01*
X0057593Y0022928D01*
X0057500Y0022800D01*
X0057404Y0022675D01*
X0057305Y0022553D01*
X0057202Y0022433D01*
X0057097Y0022315D01*
X0056989Y0022201D01*
X0056877Y0022089D01*
X0056763Y0021980D01*
X0056647Y0021874D01*
X0056527Y0021771D01*
X0056406Y0021671D01*
X0056281Y0021574D01*
X0056154Y0021480D01*
X0056025Y0021389D01*
X0055894Y0021302D01*
X0055761Y0021218D01*
X0055625Y0021137D01*
X0055487Y0021060D01*
X0055348Y0020987D01*
X0055207Y0020917D01*
X0055064Y0020850D01*
X0054919Y0020787D01*
X0054773Y0020728D01*
X0054625Y0020672D01*
X0054476Y0020621D01*
X0054326Y0020573D01*
X0054175Y0020529D01*
X0054022Y0020488D01*
X0053869Y0020452D01*
X0053714Y0020419D01*
X0053559Y0020390D01*
X0053404Y0020366D01*
X0053247Y0020345D01*
X0053091Y0020328D01*
X0052933Y0020315D01*
X0052776Y0020306D01*
X0052618Y0020301D01*
X0052461Y0020300D01*
X0052303Y0020303D01*
X0052145Y0020310D01*
X0051988Y0020321D01*
X0051831Y0020336D01*
X0051674Y0020355D01*
X0051518Y0020378D01*
X0051363Y0020404D01*
X0051208Y0020435D01*
X0051054Y0020469D01*
X0050901Y0020508D01*
X0050749Y0020550D01*
X0050599Y0020596D01*
X0050449Y0020646D01*
X0050301Y0020700D01*
X0050154Y0020757D01*
X0050008Y0020818D01*
X0049865Y0020883D01*
X0049722Y0020951D01*
X0049582Y0021023D01*
X0049444Y0021098D01*
X0049307Y0021177D01*
X0049172Y0021259D01*
X0049040Y0021345D01*
X0048910Y0021434D01*
X0048782Y0021526D01*
X0048656Y0021622D01*
X0048533Y0021720D01*
X0048413Y0021822D01*
X0048295Y0021927D01*
X0048179Y0022034D01*
X0048067Y0022145D01*
X0047957Y0022258D01*
X0047850Y0022374D01*
X0047746Y0022492D01*
X0047645Y0022614D01*
X0047548Y0022737D01*
X0047453Y0022864D01*
X0047362Y0022992D01*
X0047273Y0023123D01*
X0047189Y0023256D01*
X0047107Y0023391D01*
X0047029Y0023528D01*
X0046955Y0023667D01*
X0046884Y0023808D01*
X0046816Y0023950D01*
X0046753Y0024095D01*
X0046692Y0024240D01*
X0046636Y0024388D01*
X0046583Y0024536D01*
X0046534Y0024686D01*
X0046489Y0024837D01*
X0046448Y0024990D01*
X0046410Y0025143D01*
X0046377Y0025297D01*
X0046347Y0025452D01*
X0046321Y0025607D01*
X0046300Y0025764D01*
X0046282Y0025920D01*
X0046268Y0026077D01*
X0046258Y0026235D01*
X0046252Y0026392D01*
X0046250Y0026550D01*
D11*
X0077734Y0065350D02*
X0077300Y0065784D01*
X0077300Y0066651D01*
X0077734Y0067085D01*
X0078167Y0067085D01*
X0078601Y0066651D01*
X0078601Y0066217D01*
X0078601Y0066651D02*
X0079035Y0067085D01*
X0079469Y0067085D01*
X0079902Y0066651D01*
X0079902Y0065784D01*
X0079469Y0065350D01*
X0079035Y0068297D02*
X0077300Y0069164D01*
X0079035Y0070031D01*
X0079469Y0071243D02*
X0079902Y0071677D01*
X0079902Y0072544D01*
X0079469Y0072978D01*
X0079035Y0072978D01*
X0078601Y0072544D01*
X0078167Y0072978D01*
X0077734Y0072978D01*
X0077300Y0072544D01*
X0077300Y0071677D01*
X0077734Y0071243D01*
X0078601Y0072110D02*
X0078601Y0072544D01*
X0078167Y0076350D02*
X0078167Y0077651D01*
X0078601Y0078085D01*
X0079469Y0078085D01*
X0079902Y0077651D01*
X0079902Y0076350D01*
X0077300Y0076350D01*
X0077734Y0079297D02*
X0077300Y0079730D01*
X0077300Y0080598D01*
X0077734Y0081031D01*
X0078167Y0081031D01*
X0078601Y0080598D01*
X0078601Y0079297D01*
X0077734Y0079297D01*
X0078601Y0079297D02*
X0079469Y0080164D01*
X0079902Y0081031D01*
X0079902Y0086350D02*
X0077300Y0086350D01*
X0078167Y0086350D02*
X0078167Y0087651D01*
X0078601Y0088085D01*
X0079469Y0088085D01*
X0079902Y0087651D01*
X0079902Y0086350D01*
X0079902Y0089297D02*
X0078601Y0089297D01*
X0079035Y0090164D01*
X0079035Y0090598D01*
X0078601Y0091031D01*
X0077734Y0091031D01*
X0077300Y0090598D01*
X0077300Y0089730D01*
X0077734Y0089297D01*
X0079902Y0089297D02*
X0079902Y0091031D01*
X0079902Y0096350D02*
X0077300Y0096350D01*
X0078167Y0096350D02*
X0078167Y0097651D01*
X0078601Y0098085D01*
X0079469Y0098085D01*
X0079902Y0097651D01*
X0079902Y0096350D01*
X0078601Y0099297D02*
X0078601Y0101031D01*
X0077300Y0100598D02*
X0079902Y0100598D01*
X0078601Y0099297D01*
X0078167Y0106350D02*
X0078167Y0107651D01*
X0078601Y0108085D01*
X0079469Y0108085D01*
X0079902Y0107651D01*
X0079902Y0106350D01*
X0077300Y0106350D01*
X0077734Y0109297D02*
X0077300Y0109730D01*
X0077300Y0110598D01*
X0077734Y0111031D01*
X0078167Y0111031D01*
X0078601Y0110598D01*
X0078601Y0110164D01*
X0078601Y0110598D02*
X0079035Y0111031D01*
X0079469Y0111031D01*
X0079902Y0110598D01*
X0079902Y0109730D01*
X0079469Y0109297D01*
X0079902Y0116350D02*
X0077300Y0116350D01*
X0078167Y0116350D02*
X0078167Y0117651D01*
X0078601Y0118085D01*
X0079469Y0118085D01*
X0079902Y0117651D01*
X0079902Y0116350D01*
X0079469Y0119297D02*
X0079902Y0119730D01*
X0079902Y0120598D01*
X0079469Y0121031D01*
X0079035Y0121031D01*
X0077300Y0119297D01*
X0077300Y0121031D01*
X0077300Y0126350D02*
X0079902Y0126350D01*
X0079902Y0127651D01*
X0079469Y0128085D01*
X0078601Y0128085D01*
X0078167Y0127651D01*
X0078167Y0126350D01*
X0077300Y0129297D02*
X0077300Y0131031D01*
X0077300Y0130164D02*
X0079902Y0130164D01*
X0079035Y0129297D01*
X0079902Y0136350D02*
X0077300Y0136350D01*
X0078167Y0136350D02*
X0078167Y0137651D01*
X0078601Y0138085D01*
X0079469Y0138085D01*
X0079902Y0137651D01*
X0079902Y0136350D01*
X0079469Y0139297D02*
X0077734Y0139297D01*
X0079469Y0141031D01*
X0077734Y0141031D01*
X0077300Y0140598D01*
X0077300Y0139730D01*
X0077734Y0139297D01*
X0079469Y0139297D02*
X0079902Y0139730D01*
X0079902Y0140598D01*
X0079469Y0141031D01*
X0186800Y0141177D02*
X0186800Y0142044D01*
X0187234Y0142478D01*
X0186800Y0141177D02*
X0187234Y0140743D01*
X0188969Y0140743D01*
X0189402Y0141177D01*
X0189402Y0142044D01*
X0188969Y0142478D01*
X0189402Y0139531D02*
X0186800Y0139531D01*
X0187667Y0138664D01*
X0186800Y0137797D01*
X0189402Y0137797D01*
X0188969Y0136585D02*
X0189402Y0136151D01*
X0189402Y0135284D01*
X0188969Y0134850D01*
X0188535Y0134850D01*
X0188101Y0135284D01*
X0188101Y0136151D01*
X0187667Y0136585D01*
X0187234Y0136585D01*
X0186800Y0136151D01*
X0186800Y0135284D01*
X0187234Y0134850D01*
X0187234Y0132478D02*
X0188969Y0132478D01*
X0189402Y0132044D01*
X0189402Y0130743D01*
X0186800Y0130743D01*
X0186800Y0132044D01*
X0187234Y0132478D01*
X0186800Y0129531D02*
X0189402Y0129531D01*
X0189402Y0127797D02*
X0186800Y0127797D01*
X0187667Y0128664D01*
X0186800Y0129531D01*
X0187234Y0126585D02*
X0186800Y0126151D01*
X0186800Y0125284D01*
X0187234Y0124850D01*
X0188101Y0125284D02*
X0188101Y0126151D01*
X0187667Y0126585D01*
X0187234Y0126585D01*
X0188101Y0125284D02*
X0188535Y0124850D01*
X0188969Y0124850D01*
X0189402Y0125284D01*
X0189402Y0126151D01*
X0188969Y0126585D01*
X0189402Y0123424D02*
X0189402Y0121690D01*
X0189402Y0122557D02*
X0186800Y0122557D01*
X0187234Y0120478D02*
X0188969Y0120478D01*
X0189402Y0120044D01*
X0189402Y0119177D01*
X0188969Y0118743D01*
X0187234Y0118743D01*
X0186800Y0119177D01*
X0186800Y0120044D01*
X0187234Y0120478D01*
X0187234Y0117531D02*
X0188969Y0117531D01*
X0189402Y0117098D01*
X0189402Y0116230D01*
X0188969Y0115797D01*
X0187234Y0115797D01*
X0186800Y0116230D01*
X0186800Y0117098D01*
X0187234Y0117531D01*
X0187234Y0114585D02*
X0186800Y0114151D01*
X0186800Y0112850D01*
X0189402Y0112850D01*
X0189402Y0114151D01*
X0188969Y0114585D01*
X0188535Y0114585D01*
X0188101Y0114151D01*
X0188101Y0112850D01*
X0188101Y0114151D02*
X0187667Y0114585D01*
X0187234Y0114585D01*
X0189402Y0111478D02*
X0189402Y0109743D01*
X0189402Y0110610D02*
X0186800Y0110610D01*
X0187234Y0108531D02*
X0186800Y0108098D01*
X0186800Y0107230D01*
X0187234Y0106797D01*
X0188101Y0107230D02*
X0188101Y0108098D01*
X0187667Y0108531D01*
X0187234Y0108531D01*
X0188101Y0107230D02*
X0188535Y0106797D01*
X0188969Y0106797D01*
X0189402Y0107230D01*
X0189402Y0108098D01*
X0188969Y0108531D01*
X0188969Y0105585D02*
X0188101Y0105585D01*
X0187667Y0105151D01*
X0187667Y0103850D01*
X0186800Y0103850D02*
X0189402Y0103850D01*
X0189402Y0105151D01*
X0188969Y0105585D01*
X0187667Y0104717D02*
X0186800Y0105585D01*
X0187234Y0101031D02*
X0186800Y0100598D01*
X0186800Y0099730D01*
X0187234Y0099297D01*
X0187667Y0099297D01*
X0188101Y0099730D01*
X0188101Y0100598D01*
X0187667Y0101031D01*
X0187234Y0101031D01*
X0188101Y0100598D02*
X0188535Y0101031D01*
X0188969Y0101031D01*
X0189402Y0100598D01*
X0189402Y0099730D01*
X0188969Y0099297D01*
X0188535Y0099297D01*
X0188101Y0099730D01*
X0188101Y0098085D02*
X0187667Y0097651D01*
X0187667Y0096350D01*
X0186800Y0096350D02*
X0189402Y0096350D01*
X0189402Y0097651D01*
X0188969Y0098085D01*
X0188101Y0098085D01*
X0188969Y0091031D02*
X0187234Y0089297D01*
X0186800Y0089297D01*
X0188101Y0088085D02*
X0187667Y0087651D01*
X0187667Y0086350D01*
X0186800Y0086350D02*
X0189402Y0086350D01*
X0189402Y0087651D01*
X0188969Y0088085D01*
X0188101Y0088085D01*
X0189402Y0089297D02*
X0189402Y0091031D01*
X0188969Y0091031D01*
X0188969Y0081978D02*
X0189402Y0081544D01*
X0189402Y0080677D01*
X0188969Y0080243D01*
X0187234Y0080243D01*
X0186800Y0080677D01*
X0186800Y0081544D01*
X0187234Y0081978D01*
X0187234Y0079031D02*
X0186800Y0078598D01*
X0186800Y0077730D01*
X0187234Y0077297D01*
X0188969Y0077297D01*
X0189402Y0077730D01*
X0189402Y0078598D01*
X0188969Y0079031D01*
X0189402Y0076085D02*
X0187667Y0076085D01*
X0186800Y0075217D01*
X0187667Y0074350D01*
X0189402Y0074350D01*
X0188969Y0071978D02*
X0187234Y0071978D01*
X0186800Y0071544D01*
X0186800Y0070243D01*
X0189402Y0070243D01*
X0189402Y0071544D01*
X0188969Y0071978D01*
X0189402Y0069031D02*
X0186800Y0069031D01*
X0189402Y0067297D01*
X0186800Y0067297D01*
X0187234Y0066085D02*
X0188101Y0066085D01*
X0188101Y0065217D01*
X0187234Y0064350D02*
X0186800Y0064784D01*
X0186800Y0065651D01*
X0187234Y0066085D01*
X0188969Y0066085D02*
X0189402Y0065651D01*
X0189402Y0064784D01*
X0188969Y0064350D01*
X0187234Y0064350D01*
D12*
X0138100Y0050653D02*
X0138100Y0047450D01*
X0135965Y0047450D02*
X0135965Y0050653D01*
X0137032Y0049585D01*
X0138100Y0050653D01*
X0133883Y0049585D02*
X0132815Y0049585D01*
X0132282Y0049051D01*
X0132282Y0047450D01*
X0133883Y0047450D01*
X0134417Y0047984D01*
X0133883Y0048518D01*
X0132282Y0048518D01*
X0130734Y0049051D02*
X0130200Y0049585D01*
X0128599Y0049585D01*
X0128599Y0050653D02*
X0128599Y0047450D01*
X0130200Y0047450D01*
X0130734Y0047984D01*
X0130734Y0049051D01*
X0127051Y0049051D02*
X0126517Y0049585D01*
X0125449Y0049585D01*
X0124915Y0049051D01*
X0124915Y0048518D01*
X0127051Y0048518D01*
X0127051Y0049051D02*
X0127051Y0047984D01*
X0126517Y0047450D01*
X0125449Y0047450D01*
X0125789Y0044119D02*
X0125789Y0041984D01*
X0125255Y0041450D01*
X0125255Y0043585D02*
X0126323Y0043585D01*
X0128245Y0044653D02*
X0128245Y0041450D01*
X0128778Y0041450D02*
X0127711Y0041450D01*
X0130166Y0041450D02*
X0131234Y0041450D01*
X0130700Y0041450D02*
X0130700Y0043585D01*
X0131234Y0043585D01*
X0130700Y0044653D02*
X0130700Y0045187D01*
X0128778Y0044653D02*
X0128245Y0044653D01*
X0132782Y0043585D02*
X0132782Y0041450D01*
X0134383Y0041450D01*
X0134917Y0041984D01*
X0134917Y0043585D01*
X0136465Y0043585D02*
X0136999Y0043051D01*
X0138600Y0043051D01*
X0138600Y0041450D02*
X0138600Y0044653D01*
X0136999Y0044653D01*
X0136465Y0044119D01*
X0136465Y0043585D01*
X0136999Y0043051D02*
X0136465Y0042518D01*
X0136465Y0041984D01*
X0136999Y0041450D01*
X0138600Y0041450D01*
X0120184Y0041450D02*
X0118583Y0041450D01*
X0118049Y0041984D01*
X0118049Y0043051D01*
X0118583Y0043585D01*
X0120184Y0043585D01*
X0120184Y0044653D02*
X0120184Y0041450D01*
X0116501Y0041984D02*
X0115967Y0041450D01*
X0114366Y0041450D01*
X0114366Y0040916D02*
X0114900Y0040382D01*
X0115434Y0040382D01*
X0114366Y0040916D02*
X0114366Y0043585D01*
X0116501Y0043585D02*
X0116501Y0041984D01*
X0117229Y0047450D02*
X0117229Y0049585D01*
X0115627Y0049585D01*
X0115094Y0049051D01*
X0115094Y0047450D01*
X0118617Y0047450D02*
X0119684Y0047450D01*
X0119150Y0047450D02*
X0119150Y0049585D01*
X0119684Y0049585D01*
X0119150Y0050653D02*
X0119150Y0051187D01*
X0109863Y0050653D02*
X0109863Y0047984D01*
X0109329Y0047450D01*
X0108261Y0047450D01*
X0107727Y0047984D01*
X0107727Y0050653D01*
X0106179Y0050119D02*
X0106179Y0049585D01*
X0105646Y0049051D01*
X0104578Y0049051D01*
X0104044Y0048518D01*
X0104044Y0047984D01*
X0104578Y0047450D01*
X0105646Y0047450D01*
X0106179Y0047984D01*
X0106179Y0050119D02*
X0105646Y0050653D01*
X0104578Y0050653D01*
X0104044Y0050119D01*
X0102496Y0049585D02*
X0101429Y0050653D01*
X0100361Y0049585D01*
X0100361Y0047450D01*
X0100361Y0049051D02*
X0102496Y0049051D01*
X0102496Y0049585D02*
X0102496Y0047450D01*
X0101235Y0043585D02*
X0099633Y0043585D01*
X0098085Y0043585D02*
X0098085Y0041450D01*
X0098085Y0042518D02*
X0097018Y0043585D01*
X0096484Y0043585D01*
X0095016Y0043051D02*
X0095016Y0041984D01*
X0094482Y0041450D01*
X0093415Y0041450D01*
X0092881Y0041984D01*
X0092881Y0043051D01*
X0093415Y0043585D01*
X0094482Y0043585D01*
X0095016Y0043051D01*
X0091333Y0043051D02*
X0090265Y0043051D01*
X0091333Y0041450D02*
X0091333Y0044653D01*
X0089198Y0044653D01*
X0087116Y0043585D02*
X0086048Y0043585D01*
X0085515Y0043051D01*
X0085515Y0041450D01*
X0087116Y0041450D01*
X0087650Y0041984D01*
X0087116Y0042518D01*
X0085515Y0042518D01*
X0083967Y0043585D02*
X0082365Y0043585D01*
X0081832Y0043051D01*
X0081832Y0041984D01*
X0082365Y0041450D01*
X0083967Y0041450D01*
X0083967Y0044653D01*
X0099633Y0041450D02*
X0101235Y0041450D01*
X0101769Y0041984D01*
X0101769Y0043051D01*
X0101235Y0043585D01*
X0103317Y0043051D02*
X0103317Y0041450D01*
X0104918Y0041450D01*
X0105452Y0041984D01*
X0104918Y0042518D01*
X0103317Y0042518D01*
X0103317Y0043051D02*
X0103850Y0043585D01*
X0104918Y0043585D01*
X0107000Y0044653D02*
X0107000Y0041450D01*
X0109135Y0041450D02*
X0109135Y0044653D01*
X0108067Y0043585D01*
X0107000Y0044653D01*
D13*
X0113167Y0109050D02*
X0114501Y0109050D01*
X0115169Y0109717D01*
X0112500Y0112386D01*
X0112500Y0109717D01*
X0113167Y0109050D01*
X0115169Y0109717D02*
X0115169Y0112386D01*
X0114501Y0113053D01*
X0113167Y0113053D01*
X0112500Y0112386D01*
X0112955Y0116550D02*
X0114957Y0116550D01*
X0115624Y0117217D01*
X0115624Y0118552D01*
X0114957Y0119219D01*
X0112955Y0119219D01*
X0112955Y0120553D02*
X0112955Y0116550D01*
X0117359Y0116550D02*
X0118693Y0116550D01*
X0118026Y0116550D02*
X0118026Y0120553D01*
X0118693Y0120553D01*
X0120628Y0118552D02*
X0120628Y0117884D01*
X0123297Y0117884D01*
X0123297Y0117217D02*
X0123297Y0118552D01*
X0122630Y0119219D01*
X0121296Y0119219D01*
X0120628Y0118552D01*
X0121296Y0116550D02*
X0122630Y0116550D01*
X0123297Y0117217D01*
X0125032Y0116550D02*
X0126367Y0116550D01*
X0125699Y0116550D02*
X0125699Y0119219D01*
X0126367Y0119219D01*
X0125699Y0120553D02*
X0125699Y0121221D01*
X0128302Y0118552D02*
X0128302Y0116550D01*
X0128302Y0118552D02*
X0128969Y0119219D01*
X0130303Y0119219D01*
X0130971Y0118552D01*
X0130971Y0120553D02*
X0130971Y0116550D01*
X0132906Y0117217D02*
X0133573Y0116550D01*
X0134907Y0116550D01*
X0135574Y0117217D01*
X0134907Y0118552D02*
X0135574Y0119219D01*
X0135574Y0119886D01*
X0134907Y0120553D01*
X0133573Y0120553D01*
X0132906Y0119886D01*
X0133573Y0118552D02*
X0132906Y0117884D01*
X0132906Y0117217D01*
X0133573Y0118552D02*
X0134907Y0118552D01*
X0136854Y0113053D02*
X0136854Y0109050D01*
X0138188Y0109050D02*
X0135519Y0109050D01*
X0133584Y0109050D02*
X0130915Y0113053D01*
X0128980Y0112386D02*
X0128313Y0113053D01*
X0126979Y0113053D01*
X0126311Y0112386D01*
X0126311Y0111719D01*
X0128980Y0109050D01*
X0126311Y0109050D01*
X0124376Y0109717D02*
X0121708Y0112386D01*
X0121708Y0109717D01*
X0122375Y0109050D01*
X0123709Y0109050D01*
X0124376Y0109717D01*
X0124376Y0112386D01*
X0123709Y0113053D01*
X0122375Y0113053D01*
X0121708Y0112386D01*
X0119773Y0112386D02*
X0119105Y0113053D01*
X0117771Y0113053D01*
X0117104Y0112386D01*
X0117104Y0111719D01*
X0119773Y0109050D01*
X0117104Y0109050D01*
X0106416Y0116550D02*
X0106416Y0120553D01*
X0104415Y0120553D01*
X0103747Y0119886D01*
X0103747Y0118552D01*
X0104415Y0117884D01*
X0106416Y0117884D01*
X0105082Y0117884D02*
X0103747Y0116550D01*
X0101812Y0116550D02*
X0099143Y0116550D01*
X0100478Y0116550D02*
X0100478Y0120553D01*
X0101812Y0119219D01*
X0102780Y0125050D02*
X0104114Y0125050D01*
X0103447Y0125050D02*
X0103447Y0127719D01*
X0104114Y0127719D01*
X0103447Y0129053D02*
X0103447Y0129721D01*
X0101045Y0127052D02*
X0101045Y0125717D01*
X0100378Y0125050D01*
X0099043Y0125050D01*
X0098376Y0125717D01*
X0098376Y0127052D01*
X0099043Y0127719D01*
X0100378Y0127719D01*
X0101045Y0127052D01*
X0105749Y0125717D02*
X0105749Y0125050D01*
X0106416Y0125050D01*
X0106416Y0125717D01*
X0105749Y0125717D01*
X0108351Y0127719D02*
X0109686Y0125050D01*
X0111020Y0127719D01*
X0112955Y0127052D02*
X0112955Y0125050D01*
X0114290Y0125050D02*
X0114290Y0127052D01*
X0113622Y0127719D01*
X0112955Y0127052D01*
X0114290Y0127052D02*
X0114957Y0127719D01*
X0115624Y0127719D01*
X0115624Y0125050D01*
X0117559Y0125050D02*
X0117559Y0127052D01*
X0118226Y0127719D01*
X0120228Y0127719D01*
X0120228Y0125050D01*
X0122163Y0126384D02*
X0124832Y0126384D01*
X0124832Y0125717D02*
X0124832Y0127052D01*
X0124165Y0127719D01*
X0122830Y0127719D01*
X0122163Y0127052D01*
X0122163Y0126384D01*
X0122830Y0125050D02*
X0124165Y0125050D01*
X0124832Y0125717D01*
X0126767Y0125717D02*
X0126767Y0127052D01*
X0127434Y0127719D01*
X0129436Y0127719D01*
X0129436Y0123716D01*
X0129436Y0125050D02*
X0127434Y0125050D01*
X0126767Y0125717D01*
X0131371Y0125717D02*
X0131371Y0127052D01*
X0132038Y0127719D01*
X0133373Y0127719D01*
X0134040Y0127052D01*
X0134040Y0125717D01*
X0133373Y0125050D01*
X0132038Y0125050D01*
X0131371Y0125717D01*
X0135975Y0129053D02*
X0138644Y0125050D01*
X0140579Y0129053D02*
X0143248Y0125050D01*
X0144882Y0125050D02*
X0145550Y0125050D01*
X0145550Y0125717D01*
X0144882Y0125717D01*
X0144882Y0125050D01*
X0144882Y0127052D02*
X0145550Y0127052D01*
X0145550Y0127719D01*
X0144882Y0127719D01*
X0144882Y0127052D01*
X0147485Y0127719D02*
X0149486Y0127719D01*
X0150154Y0127052D01*
X0149486Y0126384D01*
X0148152Y0126384D01*
X0147485Y0125717D01*
X0148152Y0125050D01*
X0150154Y0125050D01*
X0152089Y0125717D02*
X0152089Y0127052D01*
X0152756Y0127719D01*
X0154758Y0127719D01*
X0154758Y0123716D01*
X0154758Y0125050D02*
X0152756Y0125050D01*
X0152089Y0125717D01*
X0156492Y0125050D02*
X0157160Y0125717D01*
X0157160Y0128386D01*
X0157827Y0127719D02*
X0156492Y0127719D01*
X0159562Y0127719D02*
X0160896Y0127719D01*
X0160229Y0128386D02*
X0160229Y0125717D01*
X0159562Y0125050D01*
X0162831Y0125050D02*
X0162831Y0127052D01*
X0163498Y0127719D01*
X0164833Y0127719D01*
X0165500Y0127052D01*
X0165500Y0129053D02*
X0165500Y0125050D01*
X0164833Y0120553D02*
X0163498Y0120553D01*
X0162831Y0119886D01*
X0162831Y0118552D02*
X0164166Y0118552D01*
X0162831Y0118552D02*
X0162831Y0117217D01*
X0163498Y0116550D01*
X0164833Y0116550D01*
X0165500Y0117217D01*
X0165500Y0119886D01*
X0164833Y0120553D01*
X0160896Y0119219D02*
X0160896Y0117217D01*
X0160229Y0116550D01*
X0158227Y0116550D01*
X0158227Y0119219D01*
X0156292Y0119219D02*
X0155625Y0119219D01*
X0155625Y0116550D01*
X0156292Y0116550D02*
X0154958Y0116550D01*
X0153223Y0117217D02*
X0153223Y0118552D01*
X0152556Y0119219D01*
X0150554Y0119219D01*
X0150554Y0120553D02*
X0150554Y0116550D01*
X0152556Y0116550D01*
X0153223Y0117217D01*
X0155625Y0120553D02*
X0155625Y0121221D01*
X0148619Y0118552D02*
X0147952Y0119219D01*
X0146617Y0119219D01*
X0145950Y0118552D01*
X0145950Y0117884D01*
X0148619Y0117884D01*
X0148619Y0117217D02*
X0148619Y0118552D01*
X0148619Y0117217D02*
X0147952Y0116550D01*
X0146617Y0116550D01*
X0144015Y0116550D02*
X0144015Y0119219D01*
X0142681Y0119219D02*
X0144015Y0117884D01*
X0142681Y0119219D02*
X0142013Y0119219D01*
X0142125Y0113053D02*
X0140790Y0113053D01*
X0140123Y0112386D01*
X0140123Y0111719D01*
X0140790Y0111052D01*
X0140123Y0110384D01*
X0140123Y0109717D01*
X0140790Y0109050D01*
X0142125Y0109050D01*
X0142792Y0109717D01*
X0141458Y0111052D02*
X0140790Y0111052D01*
X0142792Y0112386D02*
X0142125Y0113053D01*
X0144727Y0113053D02*
X0147396Y0109050D01*
X0149331Y0109717D02*
X0149998Y0109050D01*
X0151333Y0109050D01*
X0152000Y0109717D01*
X0152000Y0110384D01*
X0151333Y0111052D01*
X0149998Y0111052D01*
X0149331Y0110384D01*
X0149331Y0109717D01*
X0149998Y0111052D02*
X0149331Y0111719D01*
X0149331Y0112386D01*
X0149998Y0113053D01*
X0151333Y0113053D01*
X0152000Y0112386D01*
X0152000Y0111719D01*
X0151333Y0111052D01*
X0138188Y0111719D02*
X0136854Y0113053D01*
D14*
X0152500Y0134950D03*
X0153500Y0137250D03*
X0157400Y0136050D03*
X0149400Y0138850D03*
X0148500Y0136550D03*
X0144600Y0137750D03*
X0168300Y0056850D03*
X0171500Y0051850D03*
X0171800Y0049250D03*
X0172100Y0046650D03*
X0168300Y0044150D03*
X0178000Y0046350D03*
X0178300Y0048950D03*
X0181800Y0044150D03*
X0181800Y0056850D03*
X0156400Y0051950D03*
X0154100Y0047650D03*
X0152300Y0047650D03*
X0154400Y0042050D03*
X0154600Y0042050D03*
D15*
X0154600Y0042150D03*
X0151000Y0133250D03*
X0154900Y0133350D03*
X0155000Y0133550D03*
X0154900Y0135550D03*
X0155900Y0137750D03*
X0150900Y0140550D03*
X0147000Y0140350D03*
X0147000Y0138250D03*
X0146900Y0133650D03*
X0134200Y0132650D03*
X0122900Y0137250D03*
X0122900Y0137350D03*
X0122900Y0137450D03*
X0122900Y0137550D03*
X0120900Y0135050D03*
X0120900Y0134950D03*
X0118500Y0137350D03*
X0118500Y0137450D03*
D16*
X0146550Y0135550D03*
X0146650Y0138650D03*
X0146650Y0138750D03*
X0146650Y0138850D03*
X0146650Y0138950D03*
X0151250Y0140950D03*
X0155450Y0138250D03*
X0155250Y0135150D03*
X0155250Y0134950D03*
X0155250Y0134850D03*
X0154550Y0057750D03*
X0154550Y0042250D03*
X0173850Y0052650D03*
D17*
X0154550Y0042350D03*
X0150350Y0131050D03*
X0146950Y0135150D03*
X0141050Y0137150D03*
X0134450Y0136550D03*
X0134750Y0133550D03*
X0155050Y0138650D03*
D18*
X0154450Y0139250D03*
X0151950Y0141750D03*
X0151950Y0142350D03*
X0147450Y0134650D03*
X0140750Y0133550D03*
X0140750Y0133450D03*
X0140650Y0136250D03*
X0140650Y0136350D03*
X0134650Y0135150D03*
X0134650Y0135050D03*
X0134650Y0134950D03*
X0134650Y0134850D03*
X0134550Y0135350D03*
X0134550Y0135450D03*
X0128550Y0136850D03*
X0154550Y0057550D03*
X0154550Y0042450D03*
D19*
X0152800Y0042550D03*
X0156300Y0042550D03*
X0156600Y0050150D03*
X0156700Y0050250D03*
X0156900Y0050750D03*
X0153400Y0052050D03*
X0152600Y0053450D03*
X0152600Y0053550D03*
X0154400Y0132150D03*
X0154500Y0132250D03*
X0154400Y0136150D03*
X0147500Y0141550D03*
X0145500Y0136650D03*
X0142300Y0134150D03*
X0138900Y0134150D03*
X0134300Y0132550D03*
X0130100Y0135650D03*
X0126800Y0135850D03*
X0121000Y0133250D03*
X0115100Y0138250D03*
X0115200Y0138550D03*
X0115300Y0138750D03*
X0115300Y0138850D03*
X0115300Y0138950D03*
X0110100Y0138150D03*
X0110000Y0138350D03*
X0109900Y0138550D03*
X0109800Y0138750D03*
X0109800Y0138850D03*
X0109700Y0138950D03*
D20*
X0117850Y0134550D03*
X0117850Y0134450D03*
X0117850Y0134350D03*
X0117850Y0134250D03*
X0117850Y0134150D03*
X0117850Y0134050D03*
X0117850Y0133950D03*
X0119850Y0135750D03*
X0119750Y0136050D03*
X0119550Y0136650D03*
X0121850Y0136150D03*
X0121850Y0136050D03*
X0121850Y0135950D03*
X0121750Y0135750D03*
X0121750Y0135650D03*
X0121750Y0135550D03*
X0121750Y0135450D03*
X0121650Y0135350D03*
X0121650Y0135250D03*
X0121650Y0135150D03*
X0121950Y0136450D03*
X0121950Y0136550D03*
X0122050Y0136950D03*
X0122050Y0137050D03*
X0123750Y0136450D03*
X0123750Y0136350D03*
X0123750Y0136250D03*
X0123850Y0135350D03*
X0123850Y0135250D03*
X0123850Y0135150D03*
X0123850Y0135050D03*
X0123850Y0134950D03*
X0123850Y0134850D03*
X0123850Y0134750D03*
X0123950Y0134150D03*
X0123950Y0134050D03*
X0123950Y0133950D03*
X0123950Y0133850D03*
X0123950Y0133750D03*
X0123950Y0133650D03*
X0123950Y0133550D03*
X0123950Y0133450D03*
X0123950Y0133350D03*
X0134450Y0137450D03*
X0145250Y0136950D03*
X0147750Y0142050D03*
X0150950Y0143350D03*
X0154150Y0131750D03*
X0152350Y0054350D03*
X0152350Y0054250D03*
X0154050Y0051050D03*
X0154150Y0050950D03*
X0154250Y0050750D03*
X0154350Y0050550D03*
X0155450Y0048850D03*
X0156850Y0051050D03*
X0158350Y0047450D03*
X0156950Y0042650D03*
X0152150Y0042650D03*
X0150750Y0044850D03*
X0171250Y0053650D03*
X0175050Y0050650D03*
X0172550Y0048450D03*
X0172550Y0046050D03*
X0172550Y0044950D03*
X0177550Y0048450D03*
D21*
X0177650Y0048250D03*
X0178150Y0047850D03*
X0178250Y0047750D03*
X0178350Y0047650D03*
X0178450Y0047550D03*
X0178750Y0047250D03*
X0179050Y0047050D03*
X0179150Y0046950D03*
X0179750Y0046450D03*
X0179850Y0046350D03*
X0180450Y0045850D03*
X0180550Y0045750D03*
X0180650Y0045650D03*
X0181250Y0045150D03*
X0181350Y0045050D03*
X0176950Y0048850D03*
X0176850Y0048950D03*
X0176750Y0049050D03*
X0176650Y0049150D03*
X0176250Y0049450D03*
X0176150Y0049550D03*
X0176050Y0049650D03*
X0175950Y0049750D03*
X0175050Y0050450D03*
X0175050Y0050550D03*
X0174150Y0049750D03*
X0174050Y0049650D03*
X0173950Y0049550D03*
X0173850Y0049450D03*
X0173350Y0049050D03*
X0173250Y0048950D03*
X0173150Y0048850D03*
X0172450Y0048250D03*
X0171850Y0047750D03*
X0171750Y0047650D03*
X0171650Y0047550D03*
X0171450Y0047350D03*
X0171150Y0047150D03*
X0171050Y0047050D03*
X0170950Y0046950D03*
X0170350Y0046450D03*
X0170250Y0046350D03*
X0169650Y0045850D03*
X0169550Y0045750D03*
X0169450Y0045650D03*
X0168850Y0045150D03*
X0168750Y0045050D03*
X0172550Y0044850D03*
X0172550Y0046150D03*
X0173850Y0051550D03*
X0173750Y0051650D03*
X0173150Y0052150D03*
X0172450Y0052750D03*
X0172350Y0052850D03*
X0172250Y0052950D03*
X0171950Y0053150D03*
X0171650Y0053450D03*
X0171550Y0053550D03*
X0171150Y0053850D03*
X0170950Y0054050D03*
X0170850Y0054150D03*
X0170650Y0054350D03*
X0170150Y0054750D03*
X0170050Y0054850D03*
X0169450Y0055350D03*
X0169350Y0055450D03*
X0168750Y0055950D03*
X0168650Y0056050D03*
X0168550Y0056150D03*
X0176250Y0051550D03*
X0176350Y0051650D03*
X0176950Y0052150D03*
X0177050Y0052250D03*
X0177650Y0052750D03*
X0177750Y0052850D03*
X0177850Y0052950D03*
X0178150Y0053150D03*
X0178250Y0053250D03*
X0178450Y0053450D03*
X0178550Y0053550D03*
X0179150Y0054050D03*
X0179250Y0054150D03*
X0179550Y0054450D03*
X0179950Y0054750D03*
X0180050Y0054850D03*
X0180650Y0055350D03*
X0180750Y0055450D03*
X0181350Y0055950D03*
X0181450Y0056050D03*
X0181550Y0056150D03*
X0158050Y0056850D03*
X0154550Y0050250D03*
X0155450Y0048750D03*
X0158450Y0046150D03*
X0157150Y0042750D03*
X0151950Y0042750D03*
X0152250Y0054650D03*
X0154050Y0131650D03*
X0146550Y0132950D03*
X0145150Y0137050D03*
X0147850Y0142150D03*
D22*
X0147900Y0142250D03*
X0150000Y0139550D03*
X0147900Y0137250D03*
X0146500Y0132850D03*
X0151900Y0134250D03*
X0154100Y0136550D03*
X0156800Y0136750D03*
X0155400Y0140950D03*
X0154000Y0131550D03*
X0127500Y0137450D03*
X0151100Y0056850D03*
X0152200Y0054850D03*
X0152200Y0054750D03*
X0156700Y0051250D03*
X0155400Y0048650D03*
X0158500Y0047550D03*
X0158500Y0046050D03*
X0157400Y0042850D03*
X0168400Y0044750D03*
X0168500Y0044850D03*
X0168600Y0044950D03*
X0169000Y0045250D03*
X0169100Y0045350D03*
X0169200Y0045450D03*
X0169300Y0045550D03*
X0169800Y0045950D03*
X0169900Y0046050D03*
X0170000Y0046150D03*
X0170100Y0046250D03*
X0170500Y0046550D03*
X0170600Y0046650D03*
X0170700Y0046750D03*
X0170800Y0046850D03*
X0171500Y0047450D03*
X0172000Y0047850D03*
X0172100Y0047950D03*
X0172200Y0048050D03*
X0172300Y0048150D03*
X0172800Y0048550D03*
X0172900Y0048650D03*
X0173000Y0048750D03*
X0173500Y0049150D03*
X0173600Y0049250D03*
X0173700Y0049350D03*
X0174300Y0049850D03*
X0174300Y0051150D03*
X0174200Y0051250D03*
X0174100Y0051350D03*
X0174000Y0051450D03*
X0173600Y0051750D03*
X0173500Y0051850D03*
X0173400Y0051950D03*
X0173300Y0052050D03*
X0171900Y0053250D03*
X0171800Y0053350D03*
X0171100Y0053950D03*
X0170700Y0054250D03*
X0170300Y0054650D03*
X0169900Y0054950D03*
X0169800Y0055050D03*
X0169700Y0055150D03*
X0169600Y0055250D03*
X0169200Y0055550D03*
X0169100Y0055650D03*
X0169000Y0055750D03*
X0168900Y0055850D03*
X0168400Y0056250D03*
X0168300Y0056350D03*
X0175800Y0051150D03*
X0175900Y0051250D03*
X0176000Y0051350D03*
X0176100Y0051450D03*
X0176500Y0051750D03*
X0176600Y0051850D03*
X0176700Y0051950D03*
X0176800Y0052050D03*
X0177200Y0052350D03*
X0177300Y0052450D03*
X0177400Y0052550D03*
X0177500Y0052650D03*
X0178300Y0053350D03*
X0178700Y0053650D03*
X0178800Y0053750D03*
X0178900Y0053850D03*
X0179000Y0053950D03*
X0179400Y0054250D03*
X0179500Y0054350D03*
X0179800Y0054650D03*
X0180200Y0054950D03*
X0180300Y0055050D03*
X0180400Y0055150D03*
X0180500Y0055250D03*
X0180900Y0055550D03*
X0181000Y0055650D03*
X0181100Y0055750D03*
X0181200Y0055850D03*
X0181700Y0056250D03*
X0181800Y0056350D03*
X0176400Y0049350D03*
X0176500Y0049250D03*
X0177100Y0048750D03*
X0177200Y0048650D03*
X0177300Y0048550D03*
X0177800Y0048150D03*
X0177900Y0048050D03*
X0178000Y0047950D03*
X0178600Y0047450D03*
X0178700Y0047350D03*
X0179300Y0046850D03*
X0179400Y0046750D03*
X0179500Y0046650D03*
X0179600Y0046550D03*
X0180000Y0046250D03*
X0180100Y0046150D03*
X0180200Y0046050D03*
X0180300Y0045950D03*
X0180800Y0045550D03*
X0180900Y0045450D03*
X0181000Y0045350D03*
X0181100Y0045250D03*
X0181500Y0044950D03*
X0181600Y0044850D03*
X0181700Y0044750D03*
X0175800Y0049850D03*
X0158300Y0056650D03*
D23*
X0158150Y0056750D03*
X0158550Y0056550D03*
X0158650Y0056450D03*
X0155450Y0048550D03*
X0155650Y0046750D03*
X0157850Y0043050D03*
X0151750Y0042850D03*
X0151250Y0043050D03*
X0150750Y0044750D03*
X0150450Y0056450D03*
X0150850Y0056650D03*
X0150950Y0056750D03*
X0168350Y0044650D03*
X0181750Y0044650D03*
X0153950Y0131450D03*
X0151950Y0134350D03*
X0147950Y0137150D03*
X0149950Y0139450D03*
X0145050Y0137150D03*
X0156850Y0136650D03*
D24*
X0154000Y0136650D03*
X0153900Y0136750D03*
X0148000Y0142350D03*
X0145000Y0137250D03*
X0139900Y0132550D03*
X0133000Y0133750D03*
X0150600Y0056550D03*
X0150200Y0056350D03*
X0152100Y0054950D03*
X0156700Y0051450D03*
X0156700Y0051350D03*
X0159200Y0056150D03*
X0158900Y0056350D03*
X0150600Y0047550D03*
X0151400Y0042950D03*
X0157700Y0042950D03*
X0158200Y0043150D03*
X0168300Y0056450D03*
X0171000Y0055350D03*
X0181800Y0056450D03*
D25*
X0178350Y0055950D03*
X0171850Y0055950D03*
X0171150Y0055850D03*
X0170950Y0055650D03*
X0170950Y0055250D03*
X0172550Y0046250D03*
X0172550Y0044750D03*
X0168350Y0044550D03*
X0158750Y0043550D03*
X0158450Y0043350D03*
X0158250Y0043250D03*
X0155450Y0048450D03*
X0150750Y0046250D03*
X0150650Y0046150D03*
X0150350Y0043550D03*
X0150850Y0043250D03*
X0150950Y0043150D03*
X0152050Y0055050D03*
X0152050Y0055150D03*
X0150150Y0056250D03*
X0149850Y0056050D03*
X0149750Y0055950D03*
X0158950Y0056250D03*
X0159250Y0056050D03*
X0159350Y0055950D03*
X0181750Y0044550D03*
X0153850Y0131350D03*
X0152050Y0134450D03*
X0148050Y0137050D03*
X0149850Y0139350D03*
X0148050Y0142450D03*
X0155450Y0141050D03*
X0156950Y0136550D03*
X0146450Y0132750D03*
D26*
X0144900Y0137350D03*
X0153800Y0136850D03*
X0149900Y0056150D03*
X0149600Y0055850D03*
X0149500Y0055750D03*
X0149300Y0055650D03*
X0149200Y0055450D03*
X0155400Y0048350D03*
X0155700Y0044750D03*
X0158700Y0043450D03*
X0159000Y0043650D03*
X0159300Y0043850D03*
X0150700Y0043350D03*
X0150100Y0043650D03*
X0159900Y0055450D03*
X0159800Y0055650D03*
X0159600Y0055750D03*
X0159500Y0055850D03*
X0160300Y0055150D03*
X0172600Y0045550D03*
D27*
X0172550Y0045650D03*
X0172550Y0045750D03*
X0172550Y0045450D03*
X0172550Y0045350D03*
X0172450Y0046350D03*
X0168350Y0044450D03*
X0160350Y0044850D03*
X0159850Y0044350D03*
X0159650Y0044250D03*
X0159450Y0044050D03*
X0159350Y0043950D03*
X0159050Y0043750D03*
X0155650Y0046850D03*
X0151050Y0046350D03*
X0150650Y0047650D03*
X0149250Y0044350D03*
X0149650Y0044050D03*
X0149750Y0043950D03*
X0149850Y0043850D03*
X0150050Y0043750D03*
X0150450Y0043450D03*
X0156650Y0051550D03*
X0160350Y0054950D03*
X0160350Y0055050D03*
X0160150Y0055250D03*
X0160050Y0055350D03*
X0159850Y0055550D03*
X0160550Y0054850D03*
X0160650Y0054650D03*
X0160750Y0054550D03*
X0168350Y0056550D03*
X0170950Y0055750D03*
X0181750Y0056550D03*
X0181750Y0044450D03*
X0151950Y0055250D03*
X0151950Y0055350D03*
X0149250Y0055550D03*
X0149050Y0055350D03*
X0148950Y0055250D03*
X0148850Y0055150D03*
X0148750Y0055050D03*
X0148750Y0054950D03*
X0153750Y0131250D03*
X0152150Y0134550D03*
X0148150Y0136950D03*
X0149750Y0139250D03*
X0148150Y0142550D03*
X0155550Y0141150D03*
X0157050Y0136450D03*
D28*
X0157100Y0136350D03*
X0153700Y0136950D03*
X0153700Y0131150D03*
X0146400Y0132650D03*
X0144800Y0137450D03*
X0148600Y0054850D03*
X0148500Y0054750D03*
X0148400Y0054650D03*
X0148400Y0054550D03*
X0148300Y0054450D03*
X0148200Y0054250D03*
X0148000Y0054050D03*
X0148000Y0053950D03*
X0147900Y0053850D03*
X0147800Y0053650D03*
X0147600Y0053250D03*
X0147500Y0053050D03*
X0147300Y0052550D03*
X0150300Y0046050D03*
X0150800Y0044650D03*
X0149500Y0044150D03*
X0149400Y0044250D03*
X0149200Y0044450D03*
X0149100Y0044550D03*
X0149000Y0044650D03*
X0148900Y0044750D03*
X0148800Y0044850D03*
X0148700Y0044950D03*
X0148500Y0045150D03*
X0148500Y0045250D03*
X0155400Y0048050D03*
X0155400Y0048150D03*
X0155400Y0048250D03*
X0156600Y0051650D03*
X0160900Y0054250D03*
X0160900Y0054350D03*
X0160800Y0054450D03*
X0160600Y0054750D03*
X0161100Y0054150D03*
X0161100Y0054050D03*
X0161100Y0053950D03*
X0161200Y0053850D03*
X0161300Y0053750D03*
X0161300Y0053650D03*
X0161400Y0053450D03*
X0161500Y0053250D03*
X0161600Y0053150D03*
X0161600Y0053050D03*
X0161800Y0052650D03*
X0161800Y0052550D03*
X0162000Y0051950D03*
X0162000Y0051850D03*
X0162100Y0051550D03*
X0161500Y0046650D03*
X0161300Y0046250D03*
X0161100Y0045850D03*
X0160800Y0045550D03*
X0160800Y0045450D03*
X0160600Y0045250D03*
X0160600Y0045150D03*
X0160400Y0044950D03*
X0160200Y0044750D03*
X0160100Y0044650D03*
X0160000Y0044550D03*
X0159900Y0044450D03*
X0159600Y0044150D03*
X0177200Y0044750D03*
X0177200Y0044850D03*
X0177200Y0044950D03*
X0177200Y0045050D03*
X0177200Y0045150D03*
X0177200Y0045250D03*
D29*
X0173350Y0045550D03*
X0173350Y0045650D03*
X0173250Y0045850D03*
X0172550Y0045850D03*
X0172550Y0045150D03*
X0172550Y0044650D03*
X0173250Y0045150D03*
X0171850Y0045150D03*
X0171750Y0045350D03*
X0171750Y0045450D03*
X0171750Y0045550D03*
X0171750Y0045650D03*
X0171850Y0045850D03*
X0168350Y0056750D03*
X0158950Y0047350D03*
X0158950Y0047250D03*
X0158950Y0047150D03*
X0158950Y0047050D03*
X0158950Y0046950D03*
X0158950Y0046850D03*
X0158950Y0046750D03*
X0158950Y0046650D03*
X0158950Y0046550D03*
X0158950Y0046450D03*
X0158950Y0046350D03*
X0158950Y0045950D03*
X0158950Y0045850D03*
X0158950Y0045750D03*
X0158950Y0045650D03*
X0158950Y0045550D03*
X0158950Y0045450D03*
X0158950Y0045350D03*
X0158950Y0045250D03*
X0158950Y0045150D03*
X0158950Y0045050D03*
X0158950Y0044950D03*
X0158950Y0044850D03*
X0158950Y0044750D03*
X0157550Y0045350D03*
X0157550Y0045450D03*
X0157450Y0045250D03*
X0157350Y0045050D03*
X0157350Y0044950D03*
X0157250Y0044850D03*
X0156250Y0044950D03*
X0156250Y0045050D03*
X0156450Y0045650D03*
X0156450Y0045750D03*
X0156450Y0045850D03*
X0156450Y0045950D03*
X0156450Y0046050D03*
X0156350Y0046450D03*
X0156350Y0046550D03*
X0156150Y0046650D03*
X0155250Y0046650D03*
X0155050Y0046450D03*
X0154950Y0046250D03*
X0154950Y0045350D03*
X0155050Y0045150D03*
X0155250Y0044950D03*
X0155750Y0044650D03*
X0157650Y0046350D03*
X0157550Y0046550D03*
X0157550Y0046650D03*
X0157550Y0046750D03*
X0157550Y0046850D03*
X0157550Y0046950D03*
X0157550Y0047050D03*
X0157550Y0047150D03*
X0157650Y0047250D03*
X0155350Y0047950D03*
X0151350Y0047250D03*
X0151250Y0047350D03*
X0151350Y0046550D03*
X0150050Y0045850D03*
X0149950Y0045750D03*
X0149950Y0045650D03*
X0149950Y0045550D03*
X0149950Y0045450D03*
X0149950Y0045350D03*
X0149950Y0045250D03*
X0151350Y0044950D03*
X0150050Y0047350D03*
X0181750Y0056750D03*
X0146350Y0132550D03*
X0153650Y0137050D03*
X0148350Y0142750D03*
D30*
X0149500Y0138950D03*
X0148400Y0136650D03*
X0144700Y0137650D03*
X0152400Y0134850D03*
X0153600Y0137150D03*
X0157300Y0136150D03*
X0154600Y0057950D03*
X0151700Y0055850D03*
X0151700Y0055750D03*
X0156500Y0051850D03*
X0155400Y0047850D03*
X0155100Y0046550D03*
X0155000Y0046350D03*
X0154900Y0046150D03*
X0154900Y0046050D03*
X0154900Y0045950D03*
X0154900Y0045850D03*
X0154900Y0045750D03*
X0154900Y0045650D03*
X0154900Y0045550D03*
X0154900Y0045450D03*
X0155000Y0045250D03*
X0155100Y0045050D03*
X0154000Y0045050D03*
X0154000Y0045150D03*
X0154000Y0045250D03*
X0154000Y0045350D03*
X0154000Y0045450D03*
X0154000Y0045550D03*
X0154000Y0045650D03*
X0154000Y0045750D03*
X0154000Y0045850D03*
X0154000Y0045950D03*
X0154000Y0046050D03*
X0154000Y0046450D03*
X0154000Y0046550D03*
X0154000Y0046650D03*
X0154000Y0046750D03*
X0154000Y0046850D03*
X0154000Y0046950D03*
X0154000Y0047050D03*
X0154000Y0047150D03*
X0154000Y0047250D03*
X0154000Y0047350D03*
X0154000Y0047450D03*
X0154000Y0047550D03*
X0152400Y0047550D03*
X0152400Y0047450D03*
X0152400Y0047350D03*
X0152400Y0047250D03*
X0152400Y0047150D03*
X0152400Y0047050D03*
X0152400Y0046950D03*
X0152400Y0046850D03*
X0152400Y0046750D03*
X0152400Y0046650D03*
X0152400Y0046550D03*
X0152400Y0046450D03*
X0152400Y0046050D03*
X0152400Y0045950D03*
X0152400Y0045850D03*
X0152400Y0045750D03*
X0152400Y0045650D03*
X0152400Y0045550D03*
X0152400Y0045450D03*
X0152400Y0045350D03*
X0152400Y0045250D03*
X0152400Y0045150D03*
X0152400Y0045050D03*
X0152400Y0044950D03*
X0152400Y0044850D03*
X0152400Y0044750D03*
X0154000Y0044750D03*
X0154000Y0044850D03*
X0154000Y0044950D03*
X0156400Y0045150D03*
X0156400Y0045250D03*
X0156400Y0045350D03*
X0156400Y0045450D03*
X0156400Y0045550D03*
X0156400Y0046150D03*
X0156400Y0046250D03*
X0156400Y0046350D03*
X0157600Y0046450D03*
X0157800Y0045850D03*
X0157700Y0045750D03*
X0157700Y0045650D03*
X0157600Y0045550D03*
X0157400Y0045150D03*
X0157200Y0044750D03*
X0151400Y0046650D03*
X0151400Y0047150D03*
X0150000Y0045150D03*
X0168300Y0044250D03*
X0171600Y0050950D03*
X0171600Y0051050D03*
X0177900Y0045550D03*
X0181800Y0044250D03*
X0178500Y0050650D03*
X0179000Y0055050D03*
X0178800Y0055850D03*
D31*
X0181750Y0056650D03*
X0173150Y0045950D03*
X0173150Y0045050D03*
X0172550Y0045250D03*
X0171950Y0045050D03*
X0171950Y0045950D03*
X0168350Y0044350D03*
X0161950Y0047850D03*
X0161950Y0047950D03*
X0162050Y0048050D03*
X0162050Y0048150D03*
X0162050Y0048250D03*
X0162150Y0048450D03*
X0162150Y0048550D03*
X0162150Y0048650D03*
X0162250Y0049650D03*
X0162250Y0049750D03*
X0162250Y0049850D03*
X0162250Y0049950D03*
X0162250Y0050050D03*
X0162250Y0050150D03*
X0162250Y0050250D03*
X0162150Y0051250D03*
X0162150Y0051350D03*
X0162150Y0051450D03*
X0162050Y0051650D03*
X0162050Y0051750D03*
X0161950Y0052050D03*
X0161950Y0052150D03*
X0161850Y0052350D03*
X0161850Y0052450D03*
X0161750Y0052750D03*
X0161650Y0052950D03*
X0161450Y0053350D03*
X0161350Y0053550D03*
X0161850Y0047450D03*
X0161850Y0047350D03*
X0161750Y0047250D03*
X0161650Y0046950D03*
X0161650Y0046850D03*
X0161550Y0046750D03*
X0161450Y0046550D03*
X0161350Y0046350D03*
X0161250Y0046150D03*
X0161150Y0046050D03*
X0161150Y0045950D03*
X0160950Y0045650D03*
X0160750Y0045350D03*
X0160450Y0045050D03*
X0157850Y0047350D03*
X0156050Y0044850D03*
X0155350Y0044850D03*
X0151250Y0046450D03*
X0148650Y0045050D03*
X0148350Y0045350D03*
X0148350Y0045450D03*
X0148250Y0045550D03*
X0148050Y0045850D03*
X0147950Y0045950D03*
X0147950Y0046050D03*
X0147850Y0046150D03*
X0147850Y0046250D03*
X0147750Y0046350D03*
X0147650Y0046650D03*
X0147550Y0046750D03*
X0147450Y0046850D03*
X0147450Y0046950D03*
X0147250Y0047450D03*
X0147150Y0047950D03*
X0147050Y0048250D03*
X0146950Y0048550D03*
X0146950Y0048650D03*
X0146950Y0051250D03*
X0146950Y0051350D03*
X0146950Y0051450D03*
X0147050Y0051550D03*
X0147050Y0051650D03*
X0147050Y0051750D03*
X0147150Y0051950D03*
X0147150Y0052050D03*
X0147250Y0052350D03*
X0147250Y0052450D03*
X0147350Y0052650D03*
X0147450Y0052950D03*
X0147550Y0053150D03*
X0147650Y0053350D03*
X0147750Y0053450D03*
X0147750Y0053550D03*
X0147850Y0053750D03*
X0148050Y0054150D03*
X0148250Y0054350D03*
X0151850Y0055450D03*
X0168350Y0056650D03*
X0170950Y0055050D03*
X0177250Y0044650D03*
X0181750Y0044350D03*
X0152250Y0134650D03*
X0148250Y0136850D03*
X0149650Y0139150D03*
X0148250Y0142650D03*
X0132750Y0133850D03*
D32*
X0144700Y0137550D03*
X0148300Y0136750D03*
X0149600Y0139050D03*
X0152300Y0134750D03*
X0153600Y0131050D03*
X0157200Y0136250D03*
X0155600Y0141250D03*
X0151800Y0055650D03*
X0151800Y0055550D03*
X0156500Y0051750D03*
X0161700Y0052850D03*
X0161900Y0052250D03*
X0162200Y0051150D03*
X0162200Y0051050D03*
X0162200Y0050950D03*
X0162200Y0050850D03*
X0162200Y0050750D03*
X0162200Y0050650D03*
X0162200Y0050550D03*
X0162200Y0050450D03*
X0162200Y0050350D03*
X0162200Y0049550D03*
X0162200Y0049450D03*
X0162200Y0049350D03*
X0162200Y0049250D03*
X0162200Y0049150D03*
X0162200Y0049050D03*
X0162200Y0048950D03*
X0162200Y0048850D03*
X0162200Y0048750D03*
X0162100Y0048350D03*
X0161900Y0047750D03*
X0161900Y0047650D03*
X0161900Y0047550D03*
X0161700Y0047150D03*
X0161700Y0047050D03*
X0161400Y0046450D03*
X0161000Y0045750D03*
X0158000Y0045950D03*
X0150100Y0045950D03*
X0150100Y0045050D03*
X0150100Y0044950D03*
X0148200Y0045650D03*
X0148100Y0045750D03*
X0147700Y0046450D03*
X0147700Y0046550D03*
X0147400Y0047050D03*
X0147400Y0047150D03*
X0147400Y0047250D03*
X0147300Y0047350D03*
X0147200Y0047550D03*
X0147200Y0047650D03*
X0147200Y0047750D03*
X0147200Y0047850D03*
X0147100Y0048050D03*
X0147100Y0048150D03*
X0147000Y0048350D03*
X0147000Y0048450D03*
X0146900Y0048750D03*
X0146900Y0048850D03*
X0146900Y0048950D03*
X0146900Y0049050D03*
X0146900Y0049150D03*
X0146900Y0049250D03*
X0146900Y0049350D03*
X0146900Y0049450D03*
X0146900Y0049550D03*
X0146900Y0049650D03*
X0146900Y0049750D03*
X0146900Y0049850D03*
X0146900Y0049950D03*
X0146900Y0050050D03*
X0146900Y0050150D03*
X0146900Y0050250D03*
X0146900Y0050350D03*
X0146900Y0050450D03*
X0146900Y0050550D03*
X0146900Y0050650D03*
X0146900Y0050750D03*
X0146900Y0050850D03*
X0146900Y0050950D03*
X0146900Y0051050D03*
X0146900Y0051150D03*
X0147100Y0051850D03*
X0147200Y0052150D03*
X0147200Y0052250D03*
X0147400Y0052750D03*
X0147400Y0052850D03*
X0171800Y0045750D03*
X0171800Y0045250D03*
X0173300Y0045250D03*
X0173300Y0045750D03*
X0178100Y0055650D03*
X0178100Y0055750D03*
X0178100Y0055850D03*
X0178100Y0056250D03*
X0178100Y0056350D03*
D33*
X0178950Y0055750D03*
X0178950Y0055650D03*
X0179550Y0055350D03*
X0179550Y0055250D03*
X0178950Y0054950D03*
X0178950Y0054850D03*
X0178950Y0054750D03*
X0178950Y0054650D03*
X0178750Y0052950D03*
X0178750Y0052850D03*
X0178750Y0052750D03*
X0178750Y0052650D03*
X0178750Y0052550D03*
X0178750Y0052450D03*
X0178650Y0052350D03*
X0178650Y0052250D03*
X0178650Y0052150D03*
X0178650Y0052050D03*
X0178650Y0051950D03*
X0178650Y0051850D03*
X0178650Y0051750D03*
X0178650Y0051650D03*
X0178550Y0051550D03*
X0178550Y0051450D03*
X0178550Y0051350D03*
X0178550Y0051250D03*
X0178550Y0051150D03*
X0178550Y0051050D03*
X0178550Y0050950D03*
X0178550Y0050850D03*
X0178550Y0050750D03*
X0178450Y0050550D03*
X0178450Y0050450D03*
X0178450Y0050350D03*
X0178450Y0050250D03*
X0178450Y0050150D03*
X0178450Y0050050D03*
X0178450Y0049950D03*
X0178450Y0049850D03*
X0178350Y0049750D03*
X0178350Y0049650D03*
X0178350Y0049550D03*
X0178350Y0049450D03*
X0178350Y0049350D03*
X0178350Y0049250D03*
X0178350Y0049150D03*
X0178350Y0049050D03*
X0178250Y0048850D03*
X0178250Y0048750D03*
X0178250Y0048650D03*
X0178250Y0048550D03*
X0178050Y0047050D03*
X0178050Y0046950D03*
X0178050Y0046850D03*
X0178050Y0046750D03*
X0178050Y0046650D03*
X0178050Y0046550D03*
X0178050Y0046450D03*
X0177950Y0046250D03*
X0177950Y0046150D03*
X0177950Y0046050D03*
X0177950Y0045950D03*
X0177950Y0045850D03*
X0177950Y0045750D03*
X0177950Y0045650D03*
X0172150Y0046450D03*
X0172150Y0046550D03*
X0172050Y0046750D03*
X0172050Y0046850D03*
X0172050Y0046950D03*
X0172050Y0047050D03*
X0172050Y0047150D03*
X0171850Y0048550D03*
X0171850Y0048650D03*
X0171850Y0048750D03*
X0171850Y0048850D03*
X0171850Y0048950D03*
X0171850Y0049050D03*
X0171850Y0049150D03*
X0171750Y0049350D03*
X0171750Y0049450D03*
X0171750Y0049550D03*
X0171750Y0049650D03*
X0171750Y0049750D03*
X0171750Y0049850D03*
X0171750Y0049950D03*
X0171750Y0050050D03*
X0171650Y0050150D03*
X0171650Y0050250D03*
X0171650Y0050350D03*
X0171650Y0050450D03*
X0171650Y0050550D03*
X0171650Y0050650D03*
X0171650Y0050750D03*
X0171650Y0050850D03*
X0171550Y0051150D03*
X0171550Y0051250D03*
X0171550Y0051350D03*
X0171550Y0051450D03*
X0171550Y0051550D03*
X0171550Y0051650D03*
X0171550Y0051750D03*
X0171450Y0051950D03*
X0171450Y0052050D03*
X0171450Y0052150D03*
X0171450Y0052250D03*
X0171450Y0052350D03*
X0171450Y0052450D03*
X0171450Y0052550D03*
X0171450Y0052650D03*
X0171350Y0052750D03*
X0171350Y0052850D03*
X0171350Y0052950D03*
X0171150Y0054650D03*
X0171150Y0054750D03*
X0171150Y0054850D03*
X0171150Y0054950D03*
X0159050Y0047650D03*
X0155350Y0047650D03*
X0155350Y0047750D03*
X0151450Y0047050D03*
X0151450Y0046950D03*
X0151450Y0046850D03*
X0151450Y0046750D03*
X0151450Y0045050D03*
X0153450Y0130950D03*
X0146350Y0132450D03*
X0148450Y0142850D03*
X0155650Y0141350D03*
X0132550Y0133950D03*
D34*
X0130400Y0133750D03*
X0130400Y0133650D03*
X0130400Y0133550D03*
X0130400Y0133450D03*
X0130400Y0133350D03*
X0130400Y0133250D03*
X0130400Y0133150D03*
X0130400Y0133050D03*
X0130400Y0132950D03*
X0130300Y0134450D03*
X0130300Y0134550D03*
X0130300Y0134650D03*
X0130300Y0134750D03*
X0130300Y0134850D03*
X0130300Y0134950D03*
X0130200Y0135350D03*
X0130200Y0136950D03*
X0130200Y0137050D03*
X0130200Y0137150D03*
X0130200Y0137250D03*
X0130200Y0137350D03*
X0126700Y0135550D03*
X0126700Y0135450D03*
X0126700Y0135350D03*
X0126700Y0135250D03*
X0126700Y0135150D03*
X0126700Y0135050D03*
X0126700Y0134950D03*
X0126700Y0134850D03*
X0126700Y0134750D03*
X0126700Y0134650D03*
X0126700Y0134550D03*
X0126700Y0134450D03*
X0126700Y0134350D03*
X0126700Y0134250D03*
X0126700Y0134150D03*
X0126700Y0134050D03*
X0126800Y0133250D03*
X0126800Y0133150D03*
X0126800Y0133050D03*
X0126800Y0132950D03*
X0126800Y0132850D03*
X0126800Y0132750D03*
X0126800Y0132650D03*
X0121000Y0132750D03*
X0121000Y0132850D03*
X0121000Y0132950D03*
X0114000Y0134750D03*
X0114000Y0134850D03*
X0114000Y0134950D03*
X0114100Y0135150D03*
X0114100Y0135250D03*
X0114200Y0135450D03*
X0114200Y0135550D03*
X0114300Y0135750D03*
X0114300Y0135850D03*
X0114400Y0136050D03*
X0114400Y0136150D03*
X0114500Y0136450D03*
X0114600Y0136750D03*
X0113900Y0134650D03*
X0113900Y0134550D03*
X0111700Y0134750D03*
X0111700Y0134850D03*
X0111600Y0134950D03*
X0111600Y0135050D03*
X0111500Y0135150D03*
X0111500Y0135250D03*
X0111400Y0135350D03*
X0111400Y0135450D03*
X0111300Y0135550D03*
X0111300Y0135650D03*
X0111200Y0135850D03*
X0111100Y0136050D03*
X0111000Y0136250D03*
X0110900Y0136450D03*
X0110800Y0136650D03*
X0110700Y0136850D03*
X0135900Y0136250D03*
X0136000Y0136150D03*
X0136200Y0135650D03*
X0136300Y0134750D03*
X0136300Y0134650D03*
X0136300Y0134550D03*
X0136200Y0134250D03*
X0136200Y0134150D03*
X0138700Y0134650D03*
X0138700Y0134750D03*
X0138700Y0134850D03*
X0138700Y0134950D03*
X0138700Y0135050D03*
X0138700Y0135150D03*
X0138700Y0135250D03*
X0138700Y0135350D03*
X0138800Y0135550D03*
X0138800Y0135650D03*
X0138900Y0135850D03*
X0138800Y0134550D03*
X0138800Y0134450D03*
X0138800Y0134350D03*
X0142300Y0134350D03*
X0142300Y0134250D03*
X0142500Y0132550D03*
X0142500Y0132450D03*
X0142500Y0132350D03*
X0142500Y0132250D03*
X0142500Y0132150D03*
X0142500Y0132050D03*
X0142600Y0131150D03*
X0142600Y0131050D03*
X0142600Y0130950D03*
X0142600Y0130850D03*
X0142600Y0130750D03*
X0142600Y0130650D03*
X0142600Y0130550D03*
X0142600Y0130450D03*
X0145400Y0136750D03*
X0147600Y0137550D03*
X0151600Y0133950D03*
X0154300Y0132050D03*
X0154300Y0136250D03*
X0156500Y0137050D03*
X0147600Y0141750D03*
X0172700Y0056050D03*
X0175100Y0050750D03*
X0156900Y0050850D03*
X0155500Y0049050D03*
X0153600Y0051750D03*
X0152500Y0053850D03*
X0153200Y0046350D03*
X0153200Y0046250D03*
X0153200Y0046150D03*
D35*
X0150600Y0047450D03*
X0154600Y0050150D03*
X0154500Y0050350D03*
X0154500Y0050450D03*
X0154300Y0050650D03*
X0156800Y0051150D03*
X0158400Y0046250D03*
X0152300Y0054450D03*
X0152300Y0054550D03*
X0151400Y0056950D03*
X0151600Y0057050D03*
X0157500Y0057050D03*
X0157700Y0056950D03*
X0170500Y0054550D03*
X0170600Y0054450D03*
X0171200Y0053750D03*
X0172000Y0053050D03*
X0172500Y0048350D03*
X0171400Y0047250D03*
X0177600Y0048350D03*
X0178100Y0053050D03*
X0179600Y0054550D03*
X0151000Y0130450D03*
X0151800Y0134150D03*
X0154200Y0136450D03*
X0156700Y0136850D03*
X0155400Y0140850D03*
X0150100Y0139650D03*
X0147800Y0137350D03*
X0123800Y0136150D03*
X0123800Y0136050D03*
X0123800Y0135950D03*
X0123800Y0135850D03*
X0123800Y0135750D03*
X0123800Y0135650D03*
X0123800Y0135550D03*
X0123800Y0135450D03*
X0123900Y0134650D03*
X0123900Y0134550D03*
X0123900Y0134450D03*
X0123900Y0134350D03*
X0123900Y0134250D03*
X0123700Y0136550D03*
X0123700Y0136650D03*
X0123700Y0136750D03*
X0123700Y0136850D03*
X0123700Y0136950D03*
X0123700Y0137050D03*
X0119900Y0135650D03*
X0119900Y0135550D03*
X0119900Y0135450D03*
X0120000Y0135350D03*
X0120000Y0135250D03*
X0120000Y0135150D03*
X0119800Y0135850D03*
X0119800Y0135950D03*
X0119700Y0136150D03*
X0119700Y0136250D03*
X0119700Y0136350D03*
X0119600Y0136450D03*
X0119600Y0136550D03*
X0119500Y0136750D03*
X0119500Y0136850D03*
X0119500Y0136950D03*
D36*
X0117800Y0136950D03*
X0117800Y0136850D03*
X0117800Y0136750D03*
X0117800Y0136650D03*
X0117800Y0136550D03*
X0117800Y0136450D03*
X0117800Y0136350D03*
X0117800Y0136250D03*
X0117800Y0136150D03*
X0117800Y0136050D03*
X0117800Y0135950D03*
X0117800Y0135850D03*
X0117800Y0135750D03*
X0117800Y0135650D03*
X0117800Y0135550D03*
X0117800Y0135450D03*
X0117800Y0135350D03*
X0117800Y0135250D03*
X0117800Y0135150D03*
X0117800Y0135050D03*
X0117800Y0134950D03*
X0117800Y0134850D03*
X0117800Y0134750D03*
X0117800Y0134650D03*
X0117900Y0133850D03*
X0117900Y0133750D03*
X0117900Y0133650D03*
X0117900Y0133550D03*
X0117900Y0133450D03*
X0117900Y0133350D03*
X0117900Y0133250D03*
X0117900Y0133150D03*
X0117900Y0133050D03*
X0117900Y0132950D03*
X0117900Y0132850D03*
X0117900Y0132750D03*
X0117900Y0132650D03*
X0121000Y0132650D03*
X0124000Y0132650D03*
X0124000Y0132750D03*
X0124000Y0132850D03*
X0124000Y0132950D03*
X0124000Y0133050D03*
X0124000Y0133150D03*
X0124000Y0133250D03*
X0121800Y0135850D03*
X0121900Y0136250D03*
X0121900Y0136350D03*
X0122000Y0136650D03*
X0122000Y0136750D03*
X0122000Y0136850D03*
X0132900Y0135950D03*
X0132900Y0135850D03*
X0132900Y0135750D03*
X0132900Y0135650D03*
X0132900Y0135550D03*
X0133000Y0136150D03*
X0146600Y0133050D03*
X0147700Y0137450D03*
X0150200Y0139750D03*
X0147700Y0141950D03*
X0151700Y0134050D03*
X0154200Y0131850D03*
X0156600Y0136950D03*
X0157100Y0057150D03*
X0152000Y0057150D03*
X0153900Y0051350D03*
X0153900Y0051250D03*
X0154000Y0051150D03*
X0154200Y0050850D03*
X0155500Y0048950D03*
X0177700Y0056050D03*
X0178800Y0047150D03*
D37*
X0175050Y0050250D03*
X0174950Y0055950D03*
X0174950Y0056050D03*
X0174950Y0056250D03*
X0156850Y0057250D03*
X0152250Y0057250D03*
X0152550Y0053750D03*
X0152550Y0053650D03*
X0153350Y0052150D03*
X0153550Y0051950D03*
X0153550Y0051850D03*
X0155550Y0049250D03*
X0155550Y0049150D03*
X0146650Y0133150D03*
X0147550Y0137650D03*
X0150350Y0139950D03*
X0147550Y0141650D03*
X0151550Y0133850D03*
X0156450Y0137150D03*
X0155250Y0140650D03*
X0138950Y0135950D03*
X0138850Y0135750D03*
X0138850Y0134250D03*
X0138950Y0134050D03*
X0136150Y0134050D03*
X0136050Y0133950D03*
X0135850Y0136350D03*
X0133150Y0136350D03*
X0130250Y0135250D03*
X0130250Y0135150D03*
X0130250Y0135050D03*
X0130150Y0135450D03*
X0130150Y0135550D03*
X0130450Y0132850D03*
X0130450Y0132750D03*
X0130450Y0132650D03*
X0126750Y0135650D03*
X0126750Y0135750D03*
X0127550Y0137350D03*
X0120950Y0133150D03*
X0120950Y0133050D03*
X0114850Y0137350D03*
X0114850Y0137450D03*
X0114850Y0137550D03*
X0114950Y0137650D03*
X0114950Y0137750D03*
X0114950Y0137850D03*
X0115050Y0137950D03*
X0115050Y0138050D03*
X0115050Y0138150D03*
X0115150Y0138350D03*
X0115150Y0138450D03*
X0115250Y0138650D03*
X0114750Y0137250D03*
X0114750Y0137150D03*
X0114750Y0137050D03*
X0114650Y0136950D03*
X0114650Y0136850D03*
X0114550Y0136650D03*
X0114550Y0136550D03*
X0114450Y0136350D03*
X0114450Y0136250D03*
X0114350Y0135950D03*
X0114250Y0135650D03*
X0114150Y0135350D03*
X0114050Y0135050D03*
X0111250Y0135750D03*
X0111150Y0135950D03*
X0111050Y0136150D03*
X0110950Y0136350D03*
X0110850Y0136550D03*
X0110750Y0136750D03*
X0110650Y0136950D03*
X0110650Y0137050D03*
X0110550Y0137150D03*
X0110550Y0137250D03*
X0110450Y0137350D03*
X0110450Y0137450D03*
X0110350Y0137550D03*
X0110350Y0137650D03*
X0110250Y0137750D03*
X0110250Y0137850D03*
X0110150Y0137950D03*
X0110150Y0138050D03*
X0110050Y0138250D03*
X0109950Y0138450D03*
X0109850Y0138650D03*
D38*
X0120950Y0133850D03*
X0120950Y0133750D03*
X0120950Y0133650D03*
X0126850Y0135950D03*
X0127550Y0137250D03*
X0134450Y0137350D03*
X0139150Y0133850D03*
X0146750Y0133350D03*
X0147350Y0137850D03*
X0147350Y0141250D03*
X0150550Y0140150D03*
X0154650Y0135950D03*
X0156250Y0137350D03*
X0151350Y0133650D03*
X0152550Y0057350D03*
X0156550Y0057350D03*
X0152750Y0053050D03*
X0152950Y0052650D03*
X0155550Y0049350D03*
X0175050Y0050050D03*
X0175050Y0050950D03*
D39*
X0155600Y0049450D03*
X0152800Y0052750D03*
X0152800Y0052850D03*
X0152800Y0052950D03*
X0154600Y0132550D03*
X0154600Y0132650D03*
X0155200Y0140450D03*
X0147300Y0141150D03*
X0145700Y0136450D03*
X0142100Y0133850D03*
X0140000Y0132850D03*
X0135800Y0133750D03*
X0129900Y0135950D03*
X0120900Y0134050D03*
X0120900Y0133950D03*
X0113000Y0132850D03*
X0113000Y0132750D03*
D40*
X0113000Y0133050D03*
X0118200Y0138750D03*
X0118200Y0138850D03*
X0118200Y0138950D03*
X0120900Y0134450D03*
X0120900Y0134350D03*
X0120900Y0134250D03*
X0123000Y0138450D03*
X0123000Y0138550D03*
X0123000Y0138650D03*
X0123000Y0138750D03*
X0123000Y0138850D03*
X0123000Y0138950D03*
X0127500Y0137150D03*
X0145900Y0136250D03*
X0147200Y0138050D03*
X0146800Y0133450D03*
X0151200Y0133450D03*
X0154800Y0132950D03*
X0156100Y0137550D03*
X0155100Y0140350D03*
X0150700Y0140350D03*
X0147200Y0140950D03*
X0155700Y0049550D03*
D41*
X0155650Y0049650D03*
X0139950Y0132950D03*
X0134450Y0137250D03*
X0122950Y0138050D03*
X0122950Y0138150D03*
X0122950Y0138250D03*
X0122950Y0138350D03*
X0118250Y0138450D03*
X0118250Y0138550D03*
X0118250Y0138650D03*
X0112950Y0133250D03*
X0112950Y0133150D03*
X0147150Y0140750D03*
X0147150Y0140850D03*
X0150950Y0143250D03*
X0154750Y0135750D03*
D42*
X0154850Y0135650D03*
X0154950Y0133450D03*
X0154850Y0133250D03*
X0155050Y0140250D03*
X0147050Y0140450D03*
X0147050Y0140550D03*
X0146050Y0136050D03*
X0146850Y0133550D03*
X0127550Y0137050D03*
X0122950Y0137650D03*
X0122950Y0137750D03*
X0122950Y0137850D03*
X0122950Y0137950D03*
X0120850Y0134850D03*
X0118450Y0137550D03*
X0118450Y0137650D03*
X0118450Y0137750D03*
X0118350Y0137950D03*
X0118350Y0138050D03*
X0112950Y0133550D03*
X0112950Y0133450D03*
X0154550Y0057850D03*
X0155650Y0049750D03*
D43*
X0155650Y0049850D03*
X0150950Y0133150D03*
X0154950Y0133650D03*
X0155050Y0140150D03*
X0150950Y0140650D03*
X0146950Y0140250D03*
X0146950Y0140150D03*
X0146150Y0135950D03*
X0134450Y0137150D03*
X0127550Y0136950D03*
X0122850Y0137150D03*
X0118550Y0137150D03*
X0118550Y0137250D03*
X0118550Y0137050D03*
X0112950Y0133750D03*
X0112950Y0133650D03*
D44*
X0112900Y0133850D03*
X0146900Y0138350D03*
X0146900Y0139950D03*
X0146900Y0140050D03*
X0155700Y0137950D03*
X0155800Y0137850D03*
X0155000Y0135450D03*
X0155000Y0133750D03*
X0155700Y0049950D03*
D45*
X0155750Y0050050D03*
X0173950Y0052450D03*
X0150750Y0132950D03*
X0147050Y0133850D03*
X0146350Y0135750D03*
X0146750Y0138550D03*
X0146750Y0139350D03*
X0146750Y0139450D03*
X0151150Y0140850D03*
X0155150Y0134350D03*
X0155150Y0134250D03*
X0134450Y0132850D03*
D46*
X0135950Y0133850D03*
X0139050Y0133950D03*
X0139950Y0132750D03*
X0142250Y0134050D03*
X0142150Y0136150D03*
X0140850Y0137450D03*
X0139050Y0136050D03*
X0146650Y0133250D03*
X0147450Y0137750D03*
X0147450Y0141450D03*
X0150450Y0140050D03*
X0155250Y0140550D03*
X0156350Y0137250D03*
X0151450Y0133750D03*
X0130050Y0135750D03*
X0120950Y0133550D03*
X0120950Y0133450D03*
X0120950Y0133350D03*
X0152650Y0053350D03*
X0153150Y0052450D03*
X0153250Y0052250D03*
X0156750Y0050350D03*
X0156850Y0050450D03*
X0175050Y0050150D03*
X0175050Y0050850D03*
D47*
X0156900Y0050650D03*
X0156900Y0050550D03*
X0153200Y0052350D03*
X0153000Y0052550D03*
X0152700Y0053150D03*
X0152700Y0053250D03*
X0154500Y0132350D03*
X0154500Y0132450D03*
X0154500Y0136050D03*
X0147400Y0141350D03*
X0145600Y0136550D03*
X0142200Y0133950D03*
X0139200Y0136150D03*
X0130000Y0135850D03*
X0113000Y0132650D03*
D48*
X0113850Y0134350D03*
X0113850Y0134450D03*
X0111950Y0134350D03*
X0111850Y0134450D03*
X0111850Y0134550D03*
X0111750Y0134650D03*
X0126750Y0133950D03*
X0126750Y0133850D03*
X0126750Y0133750D03*
X0126750Y0133650D03*
X0126750Y0133550D03*
X0126750Y0133450D03*
X0126750Y0133350D03*
X0130350Y0133850D03*
X0130350Y0133950D03*
X0130350Y0134050D03*
X0130350Y0134150D03*
X0130350Y0134250D03*
X0130350Y0134350D03*
X0132950Y0136050D03*
X0133050Y0136250D03*
X0136050Y0136050D03*
X0136150Y0135950D03*
X0136150Y0135850D03*
X0136150Y0135750D03*
X0136250Y0135550D03*
X0136250Y0134450D03*
X0136250Y0134350D03*
X0138750Y0135450D03*
X0139950Y0132650D03*
X0142450Y0132650D03*
X0142450Y0132750D03*
X0142450Y0132850D03*
X0142450Y0132950D03*
X0142550Y0131950D03*
X0142550Y0131850D03*
X0142550Y0131750D03*
X0142550Y0131650D03*
X0142550Y0131550D03*
X0142550Y0131450D03*
X0142550Y0131350D03*
X0142550Y0131250D03*
X0142350Y0134450D03*
X0142350Y0134550D03*
X0142350Y0134650D03*
X0142350Y0134750D03*
X0142350Y0134850D03*
X0142350Y0134950D03*
X0142350Y0135050D03*
X0142350Y0135150D03*
X0142350Y0135250D03*
X0142350Y0135350D03*
X0142350Y0135450D03*
X0142350Y0135550D03*
X0142350Y0135650D03*
X0142350Y0135750D03*
X0142350Y0135850D03*
X0142350Y0135950D03*
X0142350Y0136050D03*
X0145350Y0136850D03*
X0147650Y0141850D03*
X0150250Y0139850D03*
X0155350Y0140750D03*
X0154250Y0136350D03*
X0154250Y0131950D03*
X0173350Y0056150D03*
X0175050Y0050350D03*
X0156850Y0050950D03*
X0153850Y0051450D03*
X0153750Y0051550D03*
X0153750Y0051650D03*
X0152450Y0053950D03*
X0152450Y0054050D03*
X0152450Y0054150D03*
D49*
X0154550Y0057450D03*
X0149750Y0131750D03*
X0152150Y0142050D03*
D50*
X0151500Y0141250D03*
X0154700Y0139650D03*
X0155100Y0138550D03*
X0150400Y0132550D03*
X0147200Y0134150D03*
X0146800Y0135250D03*
X0141100Y0137250D03*
X0134500Y0136650D03*
X0134700Y0133450D03*
X0154600Y0057650D03*
D51*
X0175050Y0043850D03*
X0175050Y0043750D03*
X0175050Y0043650D03*
X0175050Y0043550D03*
X0175050Y0043450D03*
X0175050Y0043350D03*
X0175050Y0043250D03*
X0175050Y0043150D03*
X0175050Y0043050D03*
X0175050Y0042950D03*
X0175050Y0042850D03*
X0175050Y0042750D03*
X0175050Y0042650D03*
X0175050Y0042550D03*
X0175050Y0042450D03*
X0175050Y0042350D03*
X0175050Y0042250D03*
X0175050Y0042150D03*
X0175050Y0042050D03*
D52*
X0175500Y0045350D03*
X0140900Y0136950D03*
X0151700Y0142650D03*
X0154800Y0138850D03*
D53*
X0154550Y0139450D03*
X0151750Y0141550D03*
X0147150Y0134950D03*
X0147350Y0134350D03*
X0150150Y0132250D03*
X0150150Y0131250D03*
X0140850Y0136850D03*
X0175550Y0045450D03*
D54*
X0175050Y0049950D03*
X0175050Y0051050D03*
X0177050Y0056150D03*
X0154650Y0132750D03*
X0154750Y0132850D03*
X0154650Y0135850D03*
X0156150Y0137450D03*
X0150650Y0140250D03*
X0147250Y0141050D03*
X0147250Y0137950D03*
X0145750Y0136350D03*
X0151250Y0133550D03*
X0120950Y0134150D03*
X0112950Y0132950D03*
D55*
X0112950Y0133950D03*
X0134350Y0132750D03*
X0134450Y0137050D03*
X0146250Y0135850D03*
X0146950Y0133750D03*
X0150850Y0133050D03*
X0150850Y0130650D03*
X0155050Y0133850D03*
X0155050Y0133950D03*
X0155150Y0134150D03*
X0155150Y0135350D03*
X0154950Y0140050D03*
X0151050Y0140750D03*
X0151050Y0143150D03*
X0146850Y0139850D03*
X0146850Y0139750D03*
X0146850Y0138450D03*
X0174050Y0052250D03*
D56*
X0174000Y0052350D03*
X0155100Y0134050D03*
X0155600Y0138050D03*
X0146800Y0139550D03*
X0146800Y0139650D03*
X0141000Y0137350D03*
X0112900Y0134150D03*
X0112900Y0134050D03*
D57*
X0112900Y0134250D03*
X0134500Y0132950D03*
X0134500Y0136950D03*
X0146400Y0135650D03*
X0146700Y0139050D03*
X0146700Y0139150D03*
X0146700Y0139250D03*
X0151200Y0143050D03*
X0154900Y0139950D03*
X0155500Y0138150D03*
X0155200Y0135250D03*
X0155300Y0134750D03*
X0155200Y0134650D03*
X0155200Y0134550D03*
X0155200Y0134450D03*
X0150700Y0132850D03*
X0150700Y0130750D03*
X0173900Y0052550D03*
D58*
X0175100Y0055150D03*
D59*
X0175050Y0055450D03*
D60*
X0174800Y0055550D03*
D61*
X0151000Y0130550D03*
X0151100Y0133350D03*
X0154800Y0133150D03*
X0154800Y0133050D03*
X0156000Y0137650D03*
X0150800Y0140450D03*
X0147100Y0140650D03*
X0147100Y0138150D03*
X0146000Y0136150D03*
X0120900Y0134750D03*
X0120900Y0134650D03*
X0120900Y0134550D03*
X0118400Y0137850D03*
X0118300Y0138150D03*
X0118300Y0138250D03*
X0118300Y0138350D03*
X0113000Y0133350D03*
D62*
X0134550Y0133150D03*
X0146650Y0135450D03*
X0147150Y0134050D03*
X0150550Y0130850D03*
X0155350Y0138350D03*
X0151350Y0142950D03*
D63*
X0151450Y0142850D03*
X0146750Y0135350D03*
X0150450Y0130950D03*
X0134650Y0133350D03*
D64*
X0140950Y0137050D03*
X0147050Y0135050D03*
X0150250Y0132350D03*
X0150250Y0131150D03*
X0154950Y0138750D03*
X0154650Y0139550D03*
X0151650Y0141450D03*
D65*
X0151850Y0141650D03*
X0151850Y0142450D03*
X0154550Y0139350D03*
X0154650Y0139050D03*
X0150050Y0132150D03*
X0150050Y0131350D03*
X0147350Y0134750D03*
X0140850Y0133250D03*
X0140750Y0136550D03*
X0140750Y0136650D03*
D66*
X0140700Y0136450D03*
X0140800Y0133350D03*
X0134600Y0135250D03*
X0147500Y0134550D03*
X0150000Y0132050D03*
X0150000Y0131450D03*
X0154500Y0139150D03*
D67*
X0152000Y0141850D03*
X0152000Y0142250D03*
X0149900Y0131950D03*
X0149900Y0131550D03*
X0140700Y0133650D03*
X0140700Y0133750D03*
X0128500Y0136650D03*
X0128500Y0136750D03*
D68*
X0128450Y0136550D03*
X0128450Y0136450D03*
X0128450Y0136350D03*
X0128450Y0136250D03*
X0128450Y0136150D03*
X0149850Y0131650D03*
D69*
X0149800Y0131850D03*
X0152100Y0141950D03*
X0152100Y0142150D03*
X0128400Y0136050D03*
D70*
X0134500Y0136450D03*
X0134700Y0133650D03*
X0147300Y0134250D03*
X0150300Y0132450D03*
X0151600Y0141350D03*
X0151600Y0142750D03*
D71*
X0151400Y0141150D03*
X0154800Y0139750D03*
X0155200Y0138450D03*
X0150500Y0132650D03*
X0134600Y0133250D03*
X0134500Y0136750D03*
D72*
X0134500Y0136850D03*
X0134500Y0133050D03*
X0147100Y0133950D03*
X0150600Y0132750D03*
X0155300Y0135050D03*
X0154800Y0139850D03*
X0151300Y0141050D03*
D73*
X0151800Y0142550D03*
X0154700Y0138950D03*
X0147200Y0134850D03*
X0147400Y0134450D03*
X0140900Y0133150D03*
X0140900Y0133050D03*
X0140800Y0136750D03*
M02*
