%
M48
M72
T01C0.0130
T02C0.0160
T03C0.0350
T04C0.0400
T05C0.1250
%
T01
X16600Y6205
X8150Y6205
X8850Y12205
X9600Y12205
X10350Y12205
X11150Y12205
X11850Y12205
X14850Y12205
X15550Y12205
X16350Y12205
X17100Y12205
X17850Y12205
X18600Y12205
X14100Y12205
X13350Y12205
X12600Y12205
X15550Y11555
X11150Y11555
X15550Y7755
X15550Y7005
X11750Y6205
X11150Y8505
X15550Y9255
X15550Y10805
X15550Y10155
X11150Y10805
X11150Y10155
X11150Y7755
X15550Y8505
X10250Y6255
X11150Y7105
X11150Y9255
X9350Y11005
X13200Y6505
X9400Y7105
X14000Y6505
X14750Y6505
X15550Y6505
X8200Y7105
X4850Y9755
X4700Y11055
X2600Y12205
X1650Y12205
X6350Y12555
X4750Y14155
X6350Y14155
X1850Y8105
X2450Y14155
X4400Y12455
X6600Y11305
X6250Y6455
X8050Y4655
X6150Y11805
X3900Y12905
X5800Y11155
X3300Y12705
X11150Y9705
X16200Y8905
X9750Y10855
X10250Y5205
X5150Y13505
X2150Y13505
X2150Y8655
X9800Y7305
X9750Y9955
X13700Y8905
X12550Y8905
X12550Y7755
X13700Y7755
X13100Y8355
T02
X8750Y5205
X14200Y5055
X10100Y4555
X12400Y5055
X8512Y8493
X13300Y4555
X11700Y4555
T03
X2000Y6155
X2500Y5155
X3000Y6155
X3500Y5155
X4000Y6155
X4500Y5155
T04
X7000Y13805
X7000Y12805
X7000Y11805
X7000Y10805
X7000Y9805
X7000Y8805
X7000Y7805
X7000Y6805
X19700Y13805
X19700Y12805
X19700Y11805
X19700Y10805
X19700Y9805
X19700Y8805
X19700Y7805
X19700Y6805
X8850Y9505
X8850Y10505
X8850Y11505
T05
X1250Y2655
X5250Y2655
M30
