%
M48
M72
T01C0.0130
T02C0.0350
T03C0.0400
T04C0.1250
%
T01
X11550Y3625
X12900Y5600
X9000Y1350
X3650Y8800
X11700Y2000
X9750Y3700
X8050Y7350
X9350Y10050
X10250Y3250
X10850Y3250
X9100Y2100
X12000Y2650
X3950Y9350
X7650Y8650
X12500Y4600
T02
X3800Y6550
X4300Y5550
X4800Y6550
X5300Y5550
X5800Y6550
X6300Y5550
T03
X13500Y8100
X13500Y7100
X13500Y6100
X13500Y5100
X13500Y4100
X13500Y3100
X13500Y2100
X13500Y1100
X800Y8100
X800Y7100
X800Y6100
X800Y5100
X800Y4100
X800Y3100
X800Y2100
X800Y1100
T04
X3050Y3050
X7050Y3050
M30
