G75*
%MOIN*%
%OFA0B0*%
%FSLAX25Y25*%
%IPPOS*%
%LPD*%
%AMOC8*
5,1,8,0,0,1.08239X$1,22.5*
%
%ADD10C,0.00000*%
%ADD11R,0.02362X0.04724*%
%ADD12R,0.04331X0.03937*%
%ADD13R,0.03937X0.04331*%
%ADD14R,0.02400X0.08700*%
%ADD15R,0.03937X0.03937*%
D10*
X0001500Y0005000D02*
X0001500Y0115000D01*
X0141500Y0115000D01*
X0141500Y0005000D01*
X0001500Y0005000D01*
X0024250Y0030500D02*
X0024252Y0030658D01*
X0024258Y0030815D01*
X0024268Y0030973D01*
X0024282Y0031130D01*
X0024300Y0031286D01*
X0024321Y0031443D01*
X0024347Y0031598D01*
X0024377Y0031753D01*
X0024410Y0031907D01*
X0024448Y0032060D01*
X0024489Y0032213D01*
X0024534Y0032364D01*
X0024583Y0032514D01*
X0024636Y0032662D01*
X0024692Y0032810D01*
X0024753Y0032955D01*
X0024816Y0033100D01*
X0024884Y0033242D01*
X0024955Y0033383D01*
X0025029Y0033522D01*
X0025107Y0033659D01*
X0025189Y0033794D01*
X0025273Y0033927D01*
X0025362Y0034058D01*
X0025453Y0034186D01*
X0025548Y0034313D01*
X0025645Y0034436D01*
X0025746Y0034558D01*
X0025850Y0034676D01*
X0025957Y0034792D01*
X0026067Y0034905D01*
X0026179Y0035016D01*
X0026295Y0035123D01*
X0026413Y0035228D01*
X0026533Y0035330D01*
X0026656Y0035428D01*
X0026782Y0035524D01*
X0026910Y0035616D01*
X0027040Y0035705D01*
X0027172Y0035791D01*
X0027307Y0035873D01*
X0027444Y0035952D01*
X0027582Y0036027D01*
X0027722Y0036099D01*
X0027865Y0036167D01*
X0028008Y0036232D01*
X0028154Y0036293D01*
X0028301Y0036350D01*
X0028449Y0036404D01*
X0028599Y0036454D01*
X0028749Y0036500D01*
X0028901Y0036542D01*
X0029054Y0036581D01*
X0029208Y0036615D01*
X0029363Y0036646D01*
X0029518Y0036672D01*
X0029674Y0036695D01*
X0029831Y0036714D01*
X0029988Y0036729D01*
X0030145Y0036740D01*
X0030303Y0036747D01*
X0030461Y0036750D01*
X0030618Y0036749D01*
X0030776Y0036744D01*
X0030933Y0036735D01*
X0031091Y0036722D01*
X0031247Y0036705D01*
X0031404Y0036684D01*
X0031559Y0036660D01*
X0031714Y0036631D01*
X0031869Y0036598D01*
X0032022Y0036562D01*
X0032175Y0036521D01*
X0032326Y0036477D01*
X0032476Y0036429D01*
X0032625Y0036378D01*
X0032773Y0036322D01*
X0032919Y0036263D01*
X0033064Y0036200D01*
X0033207Y0036133D01*
X0033348Y0036063D01*
X0033487Y0035990D01*
X0033625Y0035913D01*
X0033761Y0035832D01*
X0033894Y0035748D01*
X0034025Y0035661D01*
X0034154Y0035570D01*
X0034281Y0035476D01*
X0034406Y0035379D01*
X0034527Y0035279D01*
X0034647Y0035176D01*
X0034763Y0035070D01*
X0034877Y0034961D01*
X0034989Y0034849D01*
X0035097Y0034735D01*
X0035202Y0034617D01*
X0035305Y0034497D01*
X0035404Y0034375D01*
X0035500Y0034250D01*
X0035593Y0034122D01*
X0035683Y0033993D01*
X0035769Y0033861D01*
X0035853Y0033727D01*
X0035932Y0033591D01*
X0036009Y0033453D01*
X0036081Y0033313D01*
X0036150Y0033171D01*
X0036216Y0033028D01*
X0036278Y0032883D01*
X0036336Y0032736D01*
X0036391Y0032588D01*
X0036442Y0032439D01*
X0036489Y0032288D01*
X0036532Y0032137D01*
X0036571Y0031984D01*
X0036607Y0031830D01*
X0036638Y0031676D01*
X0036666Y0031521D01*
X0036690Y0031365D01*
X0036710Y0031208D01*
X0036726Y0031051D01*
X0036738Y0030894D01*
X0036746Y0030737D01*
X0036750Y0030579D01*
X0036750Y0030421D01*
X0036746Y0030263D01*
X0036738Y0030106D01*
X0036726Y0029949D01*
X0036710Y0029792D01*
X0036690Y0029635D01*
X0036666Y0029479D01*
X0036638Y0029324D01*
X0036607Y0029170D01*
X0036571Y0029016D01*
X0036532Y0028863D01*
X0036489Y0028712D01*
X0036442Y0028561D01*
X0036391Y0028412D01*
X0036336Y0028264D01*
X0036278Y0028117D01*
X0036216Y0027972D01*
X0036150Y0027829D01*
X0036081Y0027687D01*
X0036009Y0027547D01*
X0035932Y0027409D01*
X0035853Y0027273D01*
X0035769Y0027139D01*
X0035683Y0027007D01*
X0035593Y0026878D01*
X0035500Y0026750D01*
X0035404Y0026625D01*
X0035305Y0026503D01*
X0035202Y0026383D01*
X0035097Y0026265D01*
X0034989Y0026151D01*
X0034877Y0026039D01*
X0034763Y0025930D01*
X0034647Y0025824D01*
X0034527Y0025721D01*
X0034406Y0025621D01*
X0034281Y0025524D01*
X0034154Y0025430D01*
X0034025Y0025339D01*
X0033894Y0025252D01*
X0033761Y0025168D01*
X0033625Y0025087D01*
X0033487Y0025010D01*
X0033348Y0024937D01*
X0033207Y0024867D01*
X0033064Y0024800D01*
X0032919Y0024737D01*
X0032773Y0024678D01*
X0032625Y0024622D01*
X0032476Y0024571D01*
X0032326Y0024523D01*
X0032175Y0024479D01*
X0032022Y0024438D01*
X0031869Y0024402D01*
X0031714Y0024369D01*
X0031559Y0024340D01*
X0031404Y0024316D01*
X0031247Y0024295D01*
X0031091Y0024278D01*
X0030933Y0024265D01*
X0030776Y0024256D01*
X0030618Y0024251D01*
X0030461Y0024250D01*
X0030303Y0024253D01*
X0030145Y0024260D01*
X0029988Y0024271D01*
X0029831Y0024286D01*
X0029674Y0024305D01*
X0029518Y0024328D01*
X0029363Y0024354D01*
X0029208Y0024385D01*
X0029054Y0024419D01*
X0028901Y0024458D01*
X0028749Y0024500D01*
X0028599Y0024546D01*
X0028449Y0024596D01*
X0028301Y0024650D01*
X0028154Y0024707D01*
X0028008Y0024768D01*
X0027865Y0024833D01*
X0027722Y0024901D01*
X0027582Y0024973D01*
X0027444Y0025048D01*
X0027307Y0025127D01*
X0027172Y0025209D01*
X0027040Y0025295D01*
X0026910Y0025384D01*
X0026782Y0025476D01*
X0026656Y0025572D01*
X0026533Y0025670D01*
X0026413Y0025772D01*
X0026295Y0025877D01*
X0026179Y0025984D01*
X0026067Y0026095D01*
X0025957Y0026208D01*
X0025850Y0026324D01*
X0025746Y0026442D01*
X0025645Y0026564D01*
X0025548Y0026687D01*
X0025453Y0026814D01*
X0025362Y0026942D01*
X0025273Y0027073D01*
X0025189Y0027206D01*
X0025107Y0027341D01*
X0025029Y0027478D01*
X0024955Y0027617D01*
X0024884Y0027758D01*
X0024816Y0027900D01*
X0024753Y0028045D01*
X0024692Y0028190D01*
X0024636Y0028338D01*
X0024583Y0028486D01*
X0024534Y0028636D01*
X0024489Y0028787D01*
X0024448Y0028940D01*
X0024410Y0029093D01*
X0024377Y0029247D01*
X0024347Y0029402D01*
X0024321Y0029557D01*
X0024300Y0029714D01*
X0024282Y0029870D01*
X0024268Y0030027D01*
X0024258Y0030185D01*
X0024252Y0030342D01*
X0024250Y0030500D01*
X0064250Y0030500D02*
X0064252Y0030658D01*
X0064258Y0030815D01*
X0064268Y0030973D01*
X0064282Y0031130D01*
X0064300Y0031286D01*
X0064321Y0031443D01*
X0064347Y0031598D01*
X0064377Y0031753D01*
X0064410Y0031907D01*
X0064448Y0032060D01*
X0064489Y0032213D01*
X0064534Y0032364D01*
X0064583Y0032514D01*
X0064636Y0032662D01*
X0064692Y0032810D01*
X0064753Y0032955D01*
X0064816Y0033100D01*
X0064884Y0033242D01*
X0064955Y0033383D01*
X0065029Y0033522D01*
X0065107Y0033659D01*
X0065189Y0033794D01*
X0065273Y0033927D01*
X0065362Y0034058D01*
X0065453Y0034186D01*
X0065548Y0034313D01*
X0065645Y0034436D01*
X0065746Y0034558D01*
X0065850Y0034676D01*
X0065957Y0034792D01*
X0066067Y0034905D01*
X0066179Y0035016D01*
X0066295Y0035123D01*
X0066413Y0035228D01*
X0066533Y0035330D01*
X0066656Y0035428D01*
X0066782Y0035524D01*
X0066910Y0035616D01*
X0067040Y0035705D01*
X0067172Y0035791D01*
X0067307Y0035873D01*
X0067444Y0035952D01*
X0067582Y0036027D01*
X0067722Y0036099D01*
X0067865Y0036167D01*
X0068008Y0036232D01*
X0068154Y0036293D01*
X0068301Y0036350D01*
X0068449Y0036404D01*
X0068599Y0036454D01*
X0068749Y0036500D01*
X0068901Y0036542D01*
X0069054Y0036581D01*
X0069208Y0036615D01*
X0069363Y0036646D01*
X0069518Y0036672D01*
X0069674Y0036695D01*
X0069831Y0036714D01*
X0069988Y0036729D01*
X0070145Y0036740D01*
X0070303Y0036747D01*
X0070461Y0036750D01*
X0070618Y0036749D01*
X0070776Y0036744D01*
X0070933Y0036735D01*
X0071091Y0036722D01*
X0071247Y0036705D01*
X0071404Y0036684D01*
X0071559Y0036660D01*
X0071714Y0036631D01*
X0071869Y0036598D01*
X0072022Y0036562D01*
X0072175Y0036521D01*
X0072326Y0036477D01*
X0072476Y0036429D01*
X0072625Y0036378D01*
X0072773Y0036322D01*
X0072919Y0036263D01*
X0073064Y0036200D01*
X0073207Y0036133D01*
X0073348Y0036063D01*
X0073487Y0035990D01*
X0073625Y0035913D01*
X0073761Y0035832D01*
X0073894Y0035748D01*
X0074025Y0035661D01*
X0074154Y0035570D01*
X0074281Y0035476D01*
X0074406Y0035379D01*
X0074527Y0035279D01*
X0074647Y0035176D01*
X0074763Y0035070D01*
X0074877Y0034961D01*
X0074989Y0034849D01*
X0075097Y0034735D01*
X0075202Y0034617D01*
X0075305Y0034497D01*
X0075404Y0034375D01*
X0075500Y0034250D01*
X0075593Y0034122D01*
X0075683Y0033993D01*
X0075769Y0033861D01*
X0075853Y0033727D01*
X0075932Y0033591D01*
X0076009Y0033453D01*
X0076081Y0033313D01*
X0076150Y0033171D01*
X0076216Y0033028D01*
X0076278Y0032883D01*
X0076336Y0032736D01*
X0076391Y0032588D01*
X0076442Y0032439D01*
X0076489Y0032288D01*
X0076532Y0032137D01*
X0076571Y0031984D01*
X0076607Y0031830D01*
X0076638Y0031676D01*
X0076666Y0031521D01*
X0076690Y0031365D01*
X0076710Y0031208D01*
X0076726Y0031051D01*
X0076738Y0030894D01*
X0076746Y0030737D01*
X0076750Y0030579D01*
X0076750Y0030421D01*
X0076746Y0030263D01*
X0076738Y0030106D01*
X0076726Y0029949D01*
X0076710Y0029792D01*
X0076690Y0029635D01*
X0076666Y0029479D01*
X0076638Y0029324D01*
X0076607Y0029170D01*
X0076571Y0029016D01*
X0076532Y0028863D01*
X0076489Y0028712D01*
X0076442Y0028561D01*
X0076391Y0028412D01*
X0076336Y0028264D01*
X0076278Y0028117D01*
X0076216Y0027972D01*
X0076150Y0027829D01*
X0076081Y0027687D01*
X0076009Y0027547D01*
X0075932Y0027409D01*
X0075853Y0027273D01*
X0075769Y0027139D01*
X0075683Y0027007D01*
X0075593Y0026878D01*
X0075500Y0026750D01*
X0075404Y0026625D01*
X0075305Y0026503D01*
X0075202Y0026383D01*
X0075097Y0026265D01*
X0074989Y0026151D01*
X0074877Y0026039D01*
X0074763Y0025930D01*
X0074647Y0025824D01*
X0074527Y0025721D01*
X0074406Y0025621D01*
X0074281Y0025524D01*
X0074154Y0025430D01*
X0074025Y0025339D01*
X0073894Y0025252D01*
X0073761Y0025168D01*
X0073625Y0025087D01*
X0073487Y0025010D01*
X0073348Y0024937D01*
X0073207Y0024867D01*
X0073064Y0024800D01*
X0072919Y0024737D01*
X0072773Y0024678D01*
X0072625Y0024622D01*
X0072476Y0024571D01*
X0072326Y0024523D01*
X0072175Y0024479D01*
X0072022Y0024438D01*
X0071869Y0024402D01*
X0071714Y0024369D01*
X0071559Y0024340D01*
X0071404Y0024316D01*
X0071247Y0024295D01*
X0071091Y0024278D01*
X0070933Y0024265D01*
X0070776Y0024256D01*
X0070618Y0024251D01*
X0070461Y0024250D01*
X0070303Y0024253D01*
X0070145Y0024260D01*
X0069988Y0024271D01*
X0069831Y0024286D01*
X0069674Y0024305D01*
X0069518Y0024328D01*
X0069363Y0024354D01*
X0069208Y0024385D01*
X0069054Y0024419D01*
X0068901Y0024458D01*
X0068749Y0024500D01*
X0068599Y0024546D01*
X0068449Y0024596D01*
X0068301Y0024650D01*
X0068154Y0024707D01*
X0068008Y0024768D01*
X0067865Y0024833D01*
X0067722Y0024901D01*
X0067582Y0024973D01*
X0067444Y0025048D01*
X0067307Y0025127D01*
X0067172Y0025209D01*
X0067040Y0025295D01*
X0066910Y0025384D01*
X0066782Y0025476D01*
X0066656Y0025572D01*
X0066533Y0025670D01*
X0066413Y0025772D01*
X0066295Y0025877D01*
X0066179Y0025984D01*
X0066067Y0026095D01*
X0065957Y0026208D01*
X0065850Y0026324D01*
X0065746Y0026442D01*
X0065645Y0026564D01*
X0065548Y0026687D01*
X0065453Y0026814D01*
X0065362Y0026942D01*
X0065273Y0027073D01*
X0065189Y0027206D01*
X0065107Y0027341D01*
X0065029Y0027478D01*
X0064955Y0027617D01*
X0064884Y0027758D01*
X0064816Y0027900D01*
X0064753Y0028045D01*
X0064692Y0028190D01*
X0064636Y0028338D01*
X0064583Y0028486D01*
X0064534Y0028636D01*
X0064489Y0028787D01*
X0064448Y0028940D01*
X0064410Y0029093D01*
X0064377Y0029247D01*
X0064347Y0029402D01*
X0064321Y0029557D01*
X0064300Y0029714D01*
X0064282Y0029870D01*
X0064268Y0030027D01*
X0064258Y0030185D01*
X0064252Y0030342D01*
X0064250Y0030500D01*
D11*
X0066500Y0076976D03*
X0071500Y0076976D03*
X0076500Y0076976D03*
X0061500Y0076976D03*
X0056500Y0076976D03*
X0051500Y0076976D03*
X0046500Y0076976D03*
X0041500Y0076976D03*
X0041500Y0099024D03*
X0046500Y0099024D03*
X0051500Y0099024D03*
X0056500Y0099024D03*
X0061500Y0099024D03*
X0066500Y0099024D03*
X0071500Y0099024D03*
X0076500Y0099024D03*
D12*
X0095154Y0017000D03*
X0095154Y0010500D03*
X0101846Y0010500D03*
X0101846Y0017000D03*
D13*
X0098000Y0058654D03*
X0098000Y0065346D03*
X0089500Y0065346D03*
X0089500Y0058654D03*
X0106500Y0058654D03*
X0106500Y0065346D03*
X0115000Y0065346D03*
X0115000Y0058654D03*
D14*
X0113000Y0046300D03*
X0108000Y0046300D03*
X0103000Y0046300D03*
X0098000Y0046300D03*
X0098000Y0025700D03*
X0103000Y0025700D03*
X0108000Y0025700D03*
X0113000Y0025700D03*
D15*
X0120000Y0032850D03*
X0120000Y0039150D03*
M02*
